<svg width="61" height="68" viewBox="0 0 61 68" fill="none" xmlns="http://www.w3.org/2000/svg">
<path d="M50.3661 8.89996C50.0995 8.89996 49.8328 8.83329 49.5995 8.69996C43.1995 5.39996 37.6661 3.99996 31.0328 3.99996C24.4328 3.99996 18.1661 5.56663 12.4661 8.69996C11.6661 9.13329 10.6661 8.83329 10.1995 8.03329C9.99159 7.64345 9.94496 7.18759 10.0696 6.76373C10.1943 6.33987 10.4803 5.98184 10.8661 5.76663C17.0661 2.39996 23.8661 0.666626 31.0328 0.666626C38.1328 0.666626 44.3328 2.23329 51.1328 5.73329C51.9662 6.16663 52.2661 7.16663 51.8328 7.96663C51.701 8.2445 51.4934 8.47952 51.234 8.64463C50.9745 8.80975 50.6737 8.89825 50.3661 8.89996ZM2.66614 26.4C2.35888 26.4028 2.05683 26.3205 1.7935 26.1622C1.53016 26.0038 1.31583 25.7756 1.17429 25.5029C1.03274 25.2302 0.969515 24.9236 0.991612 24.6171C1.01371 24.3106 1.12027 24.0162 1.29948 23.7666C4.59948 19.1 8.79948 15.4333 13.7995 12.8666C24.2661 7.46663 37.6661 7.43329 48.1661 12.8333C53.1661 15.4 57.3662 19.0333 60.6662 23.6666C60.794 23.8458 60.8852 24.0485 60.9343 24.263C60.9835 24.4776 60.9896 24.6997 60.9524 24.9167C60.9152 25.1336 60.8354 25.341 60.7176 25.527C60.5999 25.7129 60.4464 25.8737 60.2662 26C59.4995 26.5333 58.4662 26.3666 57.9328 25.6C55.0137 21.4679 51.1363 18.1052 46.6328 15.8C37.0662 10.9 24.8328 10.9 15.2995 15.8333C10.7661 18.1666 6.96615 21.5 3.96614 25.7C3.69948 26.1666 3.19948 26.4 2.66614 26.4ZM23.4995 66.6333C23.2809 66.636 23.0642 66.5928 22.8632 66.5067C22.6623 66.4206 22.4816 66.2934 22.3328 66.1333C19.4328 63.2333 17.8661 61.3666 15.6328 57.3333C13.3328 53.2333 12.1328 48.2333 12.1328 42.8666C12.1328 32.9666 20.5995 24.9 30.9995 24.9C41.3995 24.9 49.8661 32.9666 49.8661 42.8666C49.8661 43.8 49.1328 44.5333 48.1995 44.5333C47.2661 44.5333 46.5328 43.8 46.5328 42.8666C46.5328 34.8 39.5661 28.2333 30.9995 28.2333C22.4328 28.2333 15.4661 34.8 15.4661 42.8666C15.4661 47.6666 16.5328 52.1 18.5661 55.7C20.6995 59.5333 22.1661 61.1666 24.7328 63.7666C25.3661 64.4333 25.3661 65.4666 24.7328 66.1333C24.3661 66.4666 23.9328 66.6333 23.4995 66.6333ZM47.3995 60.4666C43.4328 60.4666 39.9328 59.4666 37.0661 57.5C32.0995 54.1333 29.1328 48.6666 29.1328 42.8666C29.1328 41.9333 29.8661 41.2 30.7995 41.2C31.7328 41.2 32.4661 41.9333 32.4661 42.8666C32.4661 47.5666 34.8661 52 38.9328 54.7333C41.2995 56.3333 44.0662 57.1 47.3995 57.1C48.1995 57.1 49.5328 57 50.8661 56.7666C51.7661 56.6 52.6328 57.2 52.7995 58.1333C52.9662 59.0333 52.3661 59.9 51.4328 60.0666C49.5328 60.4333 47.8661 60.4666 47.3995 60.4666ZM40.6995 67.3333C40.5661 67.3333 40.3995 67.3 40.2661 67.2666C34.9661 65.8 31.4995 63.8333 27.8661 60.2666C25.5637 57.9932 23.7381 55.2833 22.496 52.2955C21.254 49.3078 20.6206 46.1022 20.6328 42.8666C20.6328 37.4666 25.2328 33.0666 30.8995 33.0666C36.5661 33.0666 41.1661 37.4666 41.1661 42.8666C41.1661 46.4333 44.2661 49.3333 48.0995 49.3333C51.9328 49.3333 55.0328 46.4333 55.0328 42.8666C55.0328 30.3 44.1995 20.1 30.8661 20.1C21.3995 20.1 12.7328 25.3666 8.83281 33.5333C7.53281 36.2333 6.86615 39.4 6.86615 42.8666C6.86615 45.4666 7.09948 49.5666 9.09948 54.9C9.43281 55.7666 8.99948 56.7333 8.13281 57.0333C7.26614 57.3666 6.29948 56.9 5.99948 56.0666C4.39328 51.851 3.5687 47.3779 3.56614 42.8666C3.56614 38.8666 4.33281 35.2333 5.83281 32.0666C10.2661 22.7666 20.0995 16.7333 30.8661 16.7333C46.0328 16.7333 58.3661 28.4333 58.3661 42.8333C58.3661 48.2333 53.7661 52.6333 48.0995 52.6333C42.4328 52.6333 37.8328 48.2333 37.8328 42.8333C37.8328 39.2666 34.7328 36.3666 30.8995 36.3666C27.0661 36.3666 23.9661 39.2666 23.9661 42.8333C23.9661 48.5333 26.1661 53.8666 30.1995 57.8666C33.3661 61 36.3995 62.7333 41.0995 64.0333C41.9995 64.2666 42.4995 65.2 42.2661 66.0666C42.0995 66.8333 41.3995 67.3333 40.6995 67.3333Z" fill="#8692A6"/>
</svg>
