<svg width="64" height="65" viewBox="0 0 64 65" fill="none" xmlns="http://www.w3.org/2000/svg">
<g filter="url(#filter0_ddd)">
<rect x="8" y="4.3667" width="45" height="45" rx="2" fill="#8692A6"/>
</g>
<g filter="url(#filter1_ddd)">
<rect x="11" y="7.3667" width="45" height="45" rx="2" fill="#0A1A47"/>
</g>
<path d="M40.7627 20.4542C40.6627 20.4542 40.5627 20.4292 40.4752 20.3792C38.0752 19.1417 36.0002 18.6167 33.5127 18.6167C31.0377 18.6167 28.6877 19.2042 26.5502 20.3792C26.2502 20.5417 25.8752 20.4292 25.7002 20.1292C25.6222 19.983 25.6047 19.8121 25.6515 19.6531C25.6982 19.4942 25.8055 19.3599 25.9502 19.2792C28.2752 18.0167 30.8252 17.3667 33.5127 17.3667C36.1752 17.3667 38.5002 17.9542 41.0502 19.2667C41.3627 19.4292 41.4752 19.8042 41.3127 20.1042C41.2633 20.2084 41.1854 20.2965 41.0881 20.3585C40.9908 20.4204 40.878 20.4536 40.7627 20.4542ZM22.8752 27.0167C22.7599 27.0178 22.6467 26.9869 22.5479 26.9275C22.4492 26.8682 22.3688 26.7826 22.3157 26.6803C22.2626 26.578 22.2389 26.4631 22.2472 26.3481C22.2555 26.2332 22.2955 26.1228 22.3627 26.0292C23.6002 24.2792 25.1752 22.9042 27.0502 21.9417C30.9752 19.9167 36.0002 19.9042 39.9377 21.9292C41.8127 22.8917 43.3877 24.2542 44.6252 25.9917C44.6731 26.0589 44.7073 26.1349 44.7257 26.2153C44.7442 26.2958 44.7465 26.3791 44.7325 26.4605C44.7186 26.5418 44.6887 26.6196 44.6445 26.6893C44.6003 26.759 44.5428 26.8193 44.4752 26.8667C44.1877 27.0667 43.8002 27.0042 43.6002 26.7167C42.5055 25.1672 41.0515 23.9062 39.3627 23.0417C35.7752 21.2042 31.1877 21.2042 27.6127 23.0542C25.9127 23.9292 24.4877 25.1792 23.3627 26.7542C23.2627 26.9292 23.0752 27.0167 22.8752 27.0167ZM30.6877 42.1042C30.6057 42.1052 30.5244 42.089 30.4491 42.0567C30.3737 42.0245 30.306 41.9767 30.2502 41.9167C29.1627 40.8292 28.5752 40.1292 27.7377 38.6167C26.8752 37.0792 26.4252 35.2042 26.4252 33.1917C26.4252 29.4792 29.6002 26.4542 33.5002 26.4542C37.4002 26.4542 40.5752 29.4792 40.5752 33.1917C40.5752 33.5417 40.3002 33.8167 39.9502 33.8167C39.6002 33.8167 39.3252 33.5417 39.3252 33.1917C39.3252 30.1667 36.7127 27.7042 33.5002 27.7042C30.2877 27.7042 27.6752 30.1667 27.6752 33.1917C27.6752 34.9917 28.0752 36.6542 28.8377 38.0042C29.6377 39.4417 30.1877 40.0542 31.1502 41.0292C31.3877 41.2792 31.3877 41.6667 31.1502 41.9167C31.0127 42.0417 30.8502 42.1042 30.6877 42.1042ZM39.6502 39.7917C38.1627 39.7917 36.8502 39.4167 35.7752 38.6792C33.9127 37.4167 32.8002 35.3667 32.8002 33.1917C32.8002 32.8417 33.0752 32.5667 33.4252 32.5667C33.7752 32.5667 34.0502 32.8417 34.0502 33.1917C34.0502 34.9542 34.9502 36.6167 36.4752 37.6417C37.3627 38.2417 38.4002 38.5292 39.6502 38.5292C39.9502 38.5292 40.4502 38.4917 40.9502 38.4042C41.2877 38.3417 41.6127 38.5667 41.6752 38.9167C41.7377 39.2542 41.5127 39.5792 41.1627 39.6417C40.4502 39.7792 39.8252 39.7917 39.6502 39.7917ZM37.1377 42.3667C37.0877 42.3667 37.0252 42.3542 36.9752 42.3417C34.9877 41.7917 33.6877 41.0542 32.3252 39.7167C31.4618 38.8642 30.7771 37.848 30.3114 36.7275C29.8456 35.6071 29.6081 34.4051 29.6127 33.1917C29.6127 31.1667 31.3377 29.5167 33.4627 29.5167C35.5877 29.5167 37.3127 31.1667 37.3127 33.1917C37.3127 34.5292 38.4752 35.6167 39.9127 35.6167C41.3502 35.6167 42.5127 34.5292 42.5127 33.1917C42.5127 28.4792 38.4502 24.6542 33.4502 24.6542C29.9002 24.6542 26.6502 26.6292 25.1877 29.6917C24.7002 30.7042 24.4502 31.8917 24.4502 33.1917C24.4502 34.1667 24.5377 35.7042 25.2877 37.7042C25.4127 38.0292 25.2502 38.3917 24.9252 38.5042C24.6002 38.6292 24.2377 38.4542 24.1252 38.1417C23.5228 36.5608 23.2136 34.8834 23.2127 33.1917C23.2127 31.6917 23.5002 30.3292 24.0627 29.1417C25.7252 25.6542 29.4127 23.3917 33.4502 23.3917C39.1377 23.3917 43.7627 27.7792 43.7627 33.1792C43.7627 35.2042 42.0377 36.8542 39.9127 36.8542C37.7877 36.8542 36.0627 35.2042 36.0627 33.1792C36.0627 31.8417 34.9002 30.7542 33.4627 30.7542C32.0252 30.7542 30.8627 31.8417 30.8627 33.1792C30.8627 35.3167 31.6877 37.3167 33.2002 38.8167C34.3877 39.9917 35.5252 40.6417 37.2877 41.1292C37.6252 41.2167 37.8127 41.5667 37.7252 41.8917C37.6627 42.1792 37.4002 42.3667 37.1377 42.3667Z" fill="white"/>
<defs>
<filter id="filter0_ddd" x="0" y="0.366699" width="61" height="61" filterUnits="userSpaceOnUse" color-interpolation-filters="sRGB">
<feFlood flood-opacity="0" result="BackgroundImageFix"/>
<feColorMatrix in="SourceAlpha" type="matrix" values="0 0 0 0 0 0 0 0 0 0 0 0 0 0 0 0 0 0 127 0" result="hardAlpha"/>
<feOffset/>
<feGaussianBlur stdDeviation="0.5"/>
<feColorMatrix type="matrix" values="0 0 0 0 0 0 0 0 0 0 0 0 0 0 0 0 0 0 0.04 0"/>
<feBlend mode="normal" in2="BackgroundImageFix" result="effect1_dropShadow"/>
<feColorMatrix in="SourceAlpha" type="matrix" values="0 0 0 0 0 0 0 0 0 0 0 0 0 0 0 0 0 0 127 0" result="hardAlpha"/>
<feOffset/>
<feGaussianBlur stdDeviation="1"/>
<feColorMatrix type="matrix" values="0 0 0 0 0 0 0 0 0 0 0 0 0 0 0 0 0 0 0.06 0"/>
<feBlend mode="normal" in2="effect1_dropShadow" result="effect2_dropShadow"/>
<feColorMatrix in="SourceAlpha" type="matrix" values="0 0 0 0 0 0 0 0 0 0 0 0 0 0 0 0 0 0 127 0" result="hardAlpha"/>
<feOffset dy="4"/>
<feGaussianBlur stdDeviation="4"/>
<feColorMatrix type="matrix" values="0 0 0 0 0 0 0 0 0 0 0 0 0 0 0 0 0 0 0.04 0"/>
<feBlend mode="normal" in2="effect2_dropShadow" result="effect3_dropShadow"/>
<feBlend mode="normal" in="SourceGraphic" in2="effect3_dropShadow" result="shape"/>
</filter>
<filter id="filter1_ddd" x="3" y="3.3667" width="61" height="61" filterUnits="userSpaceOnUse" color-interpolation-filters="sRGB">
<feFlood flood-opacity="0" result="BackgroundImageFix"/>
<feColorMatrix in="SourceAlpha" type="matrix" values="0 0 0 0 0 0 0 0 0 0 0 0 0 0 0 0 0 0 127 0" result="hardAlpha"/>
<feOffset/>
<feGaussianBlur stdDeviation="0.5"/>
<feColorMatrix type="matrix" values="0 0 0 0 0 0 0 0 0 0 0 0 0 0 0 0 0 0 0.04 0"/>
<feBlend mode="normal" in2="BackgroundImageFix" result="effect1_dropShadow"/>
<feColorMatrix in="SourceAlpha" type="matrix" values="0 0 0 0 0 0 0 0 0 0 0 0 0 0 0 0 0 0 127 0" result="hardAlpha"/>
<feOffset/>
<feGaussianBlur stdDeviation="1"/>
<feColorMatrix type="matrix" values="0 0 0 0 0 0 0 0 0 0 0 0 0 0 0 0 0 0 0.06 0"/>
<feBlend mode="normal" in2="effect1_dropShadow" result="effect2_dropShadow"/>
<feColorMatrix in="SourceAlpha" type="matrix" values="0 0 0 0 0 0 0 0 0 0 0 0 0 0 0 0 0 0 127 0" result="hardAlpha"/>
<feOffset dy="4"/>
<feGaussianBlur stdDeviation="4"/>
<feColorMatrix type="matrix" values="0 0 0 0 0 0 0 0 0 0 0 0 0 0 0 0 0 0 0.04 0"/>
<feBlend mode="normal" in2="effect2_dropShadow" result="effect3_dropShadow"/>
<feBlend mode="normal" in="SourceGraphic" in2="effect3_dropShadow" result="shape"/>
</filter>
</defs>
</svg>
