<svg width="400" height="281" viewBox="0 0 400 281" fill="none" xmlns="http://www.w3.org/2000/svg">
<path d="M31.8565 251H33.6122V246.909H35.9986C38.6974 246.909 40.0327 245.278 40.0327 243.131C40.0327 240.989 38.7088 239.364 36.0043 239.364H31.8565V251ZM33.6122 245.42V240.869H35.8168C37.5554 240.869 38.2656 241.812 38.2656 243.131C38.2656 244.449 37.5554 245.42 35.8395 245.42H33.6122ZM43.6534 239.364H41.9545V251H43.6534V239.364ZM48.4787 251.193C49.9219 251.193 50.7344 250.46 51.0582 249.807H51.1264V251H52.7855V245.205C52.7855 242.665 50.7855 242.159 49.3991 242.159C47.8196 242.159 46.3651 242.795 45.7969 244.386L47.3935 244.75C47.6435 244.131 48.2798 243.534 49.4219 243.534C50.5185 243.534 51.081 244.108 51.081 245.097V245.136C51.081 245.756 50.4446 245.744 48.8764 245.926C47.223 246.119 45.5298 246.551 45.5298 248.534C45.5298 250.25 46.8196 251.193 48.4787 251.193ZM48.848 249.83C47.8878 249.83 47.1946 249.398 47.1946 248.557C47.1946 247.648 48.0014 247.324 48.9844 247.193C49.5355 247.119 50.8423 246.972 51.0866 246.727V247.852C51.0866 248.886 50.2628 249.83 48.848 249.83ZM58.7244 251.176C60.7869 251.176 62.1222 249.938 62.3097 248.239H60.6562C60.4403 249.182 59.7074 249.739 58.7358 249.739C57.2983 249.739 56.3722 248.54 56.3722 246.636C56.3722 244.767 57.3153 243.591 58.7358 243.591C59.8153 243.591 60.4744 244.273 60.6562 245.091H62.3097C62.1278 243.33 60.6903 242.159 58.7074 242.159C56.2472 242.159 54.6562 244.011 54.6562 246.676C54.6562 249.307 56.1903 251.176 58.7244 251.176ZM67.8878 251.176C69.7912 251.176 71.1378 250.239 71.5241 248.818L69.9162 248.528C69.6094 249.352 68.8707 249.773 67.9048 249.773C66.4503 249.773 65.473 248.83 65.4276 247.148H71.6321V246.545C71.6321 243.392 69.7457 242.159 67.7685 242.159C65.3366 242.159 63.7344 244.011 63.7344 246.693C63.7344 249.403 65.3139 251.176 67.8878 251.176ZM65.4332 245.875C65.5014 244.636 66.3991 243.562 67.7798 243.562C69.098 243.562 69.9616 244.54 69.9673 245.875H65.4332ZM81.0185 251.17C82.6094 251.17 83.2344 250.199 83.5412 249.642H83.6832V251H85.3423V239.364H83.6435V243.688H83.5412C83.2344 243.148 82.6548 242.159 81.0298 242.159C78.9219 242.159 77.3707 243.824 77.3707 246.653C77.3707 249.477 78.8991 251.17 81.0185 251.17ZM81.3935 249.722C79.8764 249.722 79.0866 248.386 79.0866 246.636C79.0866 244.903 79.8594 243.602 81.3935 243.602C82.8764 243.602 83.6719 244.812 83.6719 246.636C83.6719 248.472 82.8594 249.722 81.3935 249.722ZM87.767 251H89.4659V245.67C89.4659 244.528 90.3466 243.705 91.5511 243.705C91.9034 243.705 92.3011 243.767 92.4375 243.807V242.182C92.267 242.159 91.9318 242.142 91.7159 242.142C90.6932 242.142 89.8182 242.722 89.5 243.659H89.4091V242.273H87.767V251ZM93.9077 251H95.6065V242.273H93.9077V251ZM94.7656 240.926C95.3509 240.926 95.8395 240.472 95.8395 239.915C95.8395 239.358 95.3509 238.898 94.7656 238.898C94.1747 238.898 93.6918 239.358 93.6918 239.915C93.6918 240.472 94.1747 240.926 94.7656 240.926ZM105.358 242.273H103.534L101.33 248.989H101.239L99.0284 242.273H97.2045L100.375 251H102.193L105.358 242.273ZM110.403 251.176C112.307 251.176 113.653 250.239 114.04 248.818L112.432 248.528C112.125 249.352 111.386 249.773 110.42 249.773C108.966 249.773 107.989 248.83 107.943 247.148H114.148V246.545C114.148 243.392 112.261 242.159 110.284 242.159C107.852 242.159 106.25 244.011 106.25 246.693C106.25 249.403 107.83 251.176 110.403 251.176ZM107.949 245.875C108.017 244.636 108.915 243.562 110.295 243.562C111.614 243.562 112.477 244.54 112.483 245.875H107.949ZM124.42 242.273H122.54V241.489C122.54 240.716 122.858 240.295 123.688 240.295C124.04 240.295 124.29 240.375 124.449 240.426L124.847 239.051C124.608 238.96 124.114 238.818 123.426 238.818C122.045 238.818 120.835 239.625 120.835 241.261V242.273H119.489V243.636H120.835V251H122.54V243.636H124.42V242.273ZM126.173 251H127.872V242.273H126.173V251ZM127.031 240.926C127.616 240.926 128.105 240.472 128.105 239.915C128.105 239.358 127.616 238.898 127.031 238.898C126.44 238.898 125.957 239.358 125.957 239.915C125.957 240.472 126.44 240.926 127.031 240.926ZM131.857 245.818C131.857 244.426 132.709 243.631 133.891 243.631C135.044 243.631 135.743 244.386 135.743 245.653V251H137.442V245.449C137.442 243.29 136.254 242.159 134.47 242.159C133.158 242.159 132.3 242.767 131.896 243.693H131.788V242.273H130.158V251H131.857V245.818ZM143.379 254.455C145.601 254.455 147.317 253.438 147.317 251.193V242.273H145.652V243.688H145.527C145.226 243.148 144.624 242.159 142.999 242.159C140.891 242.159 139.339 243.824 139.339 246.602C139.339 249.386 140.925 250.869 142.987 250.869C144.589 250.869 145.209 249.966 145.516 249.409H145.624V251.125C145.624 252.494 144.686 253.085 143.396 253.085C141.982 253.085 141.43 252.375 141.129 251.875L139.669 252.477C140.129 253.545 141.294 254.455 143.379 254.455ZM143.362 249.46C141.845 249.46 141.055 248.295 141.055 246.58C141.055 244.903 141.828 243.602 143.362 243.602C144.845 243.602 145.641 244.812 145.641 246.58C145.641 248.381 144.828 249.46 143.362 249.46ZM153.357 251.176C155.26 251.176 156.607 250.239 156.993 248.818L155.385 248.528C155.078 249.352 154.339 249.773 153.374 249.773C151.919 249.773 150.942 248.83 150.896 247.148H157.101V246.545C157.101 243.392 155.214 242.159 153.237 242.159C150.805 242.159 149.203 244.011 149.203 246.693C149.203 249.403 150.783 251.176 153.357 251.176ZM150.902 245.875C150.97 244.636 151.868 243.562 153.249 243.562C154.567 243.562 155.43 244.54 155.436 245.875H150.902ZM158.986 251H160.685V245.67C160.685 244.528 161.565 243.705 162.77 243.705C163.122 243.705 163.52 243.767 163.656 243.807V242.182C163.486 242.159 163.151 242.142 162.935 242.142C161.912 242.142 161.037 242.722 160.719 243.659H160.628V242.273H158.986V251ZM173.037 251.176C175.497 251.176 177.105 249.375 177.105 246.676C177.105 243.96 175.497 242.159 173.037 242.159C170.577 242.159 168.969 243.96 168.969 246.676C168.969 249.375 170.577 251.176 173.037 251.176ZM173.043 249.75C171.435 249.75 170.685 248.347 170.685 246.67C170.685 245 171.435 243.58 173.043 243.58C174.639 243.58 175.389 245 175.389 246.67C175.389 248.347 174.639 249.75 173.043 249.75ZM180.7 245.818C180.7 244.426 181.553 243.631 182.734 243.631C183.888 243.631 184.587 244.386 184.587 245.653V251H186.286V245.449C186.286 243.29 185.098 242.159 183.314 242.159C182.001 242.159 181.143 242.767 180.74 243.693H180.632V242.273H179.001V251H180.7V245.818ZM196.872 242.273H195.082V240.182H193.384V242.273H192.105V243.636H193.384V248.79C193.378 250.375 194.588 251.142 195.929 251.114C196.469 251.108 196.832 251.006 197.031 250.932L196.724 249.528C196.611 249.551 196.401 249.602 196.128 249.602C195.577 249.602 195.082 249.42 195.082 248.438V243.636H196.872V242.273ZM200.638 245.818C200.638 244.426 201.518 243.631 202.729 243.631C203.899 243.631 204.598 244.375 204.598 245.653V251H206.297V245.449C206.297 243.273 205.104 242.159 203.308 242.159C201.95 242.159 201.132 242.75 200.723 243.693H200.615V239.364H198.939V251H200.638V245.818ZM212.325 251.176C214.229 251.176 215.575 250.239 215.962 248.818L214.354 248.528C214.047 249.352 213.308 249.773 212.342 249.773C210.888 249.773 209.911 248.83 209.865 247.148H216.07V246.545C216.07 243.392 214.183 242.159 212.206 242.159C209.774 242.159 208.172 244.011 208.172 246.693C208.172 249.403 209.751 251.176 212.325 251.176ZM209.871 245.875C209.939 244.636 210.837 243.562 212.217 243.562C213.536 243.562 214.399 244.54 214.405 245.875H209.871ZM226.342 242.273H224.462V241.489C224.462 240.716 224.78 240.295 225.609 240.295C225.962 240.295 226.212 240.375 226.371 240.426L226.768 239.051C226.53 238.96 226.036 238.818 225.348 238.818C223.967 238.818 222.757 239.625 222.757 241.261V242.273H221.411V243.636H222.757V251H224.462V243.636H226.342V242.273ZM228.095 251H229.794V242.273H228.095V251ZM228.953 240.926C229.538 240.926 230.027 240.472 230.027 239.915C230.027 239.358 229.538 238.898 228.953 238.898C228.362 238.898 227.879 239.358 227.879 239.915C227.879 240.472 228.362 240.926 228.953 240.926ZM233.778 245.818C233.778 244.426 234.631 243.631 235.812 243.631C236.966 243.631 237.665 244.386 237.665 245.653V251H239.364V245.449C239.364 243.29 238.176 242.159 236.392 242.159C235.08 242.159 234.222 242.767 233.818 243.693H233.71V242.273H232.08V251H233.778V245.818ZM245.301 254.455C247.523 254.455 249.239 253.438 249.239 251.193V242.273H247.574V243.688H247.449C247.148 243.148 246.545 242.159 244.92 242.159C242.812 242.159 241.261 243.824 241.261 246.602C241.261 249.386 242.847 250.869 244.909 250.869C246.511 250.869 247.131 249.966 247.438 249.409H247.545V251.125C247.545 252.494 246.608 253.085 245.318 253.085C243.903 253.085 243.352 252.375 243.051 251.875L241.591 252.477C242.051 253.545 243.216 254.455 245.301 254.455ZM245.284 249.46C243.767 249.46 242.977 248.295 242.977 246.58C242.977 244.903 243.75 243.602 245.284 243.602C246.767 243.602 247.562 244.812 247.562 246.58C247.562 248.381 246.75 249.46 245.284 249.46ZM255.278 251.176C257.182 251.176 258.528 250.239 258.915 248.818L257.307 248.528C257 249.352 256.261 249.773 255.295 249.773C253.841 249.773 252.864 248.83 252.818 247.148H259.023V246.545C259.023 243.392 257.136 242.159 255.159 242.159C252.727 242.159 251.125 244.011 251.125 246.693C251.125 249.403 252.705 251.176 255.278 251.176ZM252.824 245.875C252.892 244.636 253.79 243.562 255.17 243.562C256.489 243.562 257.352 244.54 257.358 245.875H252.824ZM260.908 251H262.607V245.67C262.607 244.528 263.487 243.705 264.692 243.705C265.044 243.705 265.442 243.767 265.578 243.807V242.182C265.408 242.159 265.072 242.142 264.857 242.142C263.834 242.142 262.959 242.722 262.641 243.659H262.55V242.273H260.908V251ZM267.048 254.273H268.747V249.642H268.849C269.156 250.199 269.781 251.17 271.372 251.17C273.486 251.17 275.02 249.477 275.02 246.653C275.02 243.824 273.463 242.159 271.355 242.159C269.736 242.159 269.151 243.148 268.849 243.688H268.707V242.273H267.048V254.273ZM268.713 246.636C268.713 244.812 269.509 243.602 270.991 243.602C272.531 243.602 273.304 244.903 273.304 246.636C273.304 248.386 272.509 249.722 270.991 249.722C269.531 249.722 268.713 248.472 268.713 246.636ZM276.923 251H278.622V245.67C278.622 244.528 279.503 243.705 280.707 243.705C281.06 243.705 281.457 243.767 281.594 243.807V242.182C281.423 242.159 281.088 242.142 280.872 242.142C279.849 242.142 278.974 242.722 278.656 243.659H278.565V242.273H276.923V251ZM283.064 251H284.763V242.273H283.064V251ZM283.922 240.926C284.507 240.926 284.996 240.472 284.996 239.915C284.996 239.358 284.507 238.898 283.922 238.898C283.331 238.898 282.848 239.358 282.848 239.915C282.848 240.472 283.331 240.926 283.922 240.926ZM288.747 245.818C288.747 244.426 289.599 243.631 290.781 243.631C291.935 243.631 292.634 244.386 292.634 245.653V251H294.332V245.449C294.332 243.29 293.145 242.159 291.361 242.159C290.048 242.159 289.19 242.767 288.787 243.693H288.679V242.273H287.048V251H288.747V245.818ZM300.685 242.273H298.895V240.182H297.196V242.273H295.918V243.636H297.196V248.79C297.19 250.375 298.401 251.142 299.741 251.114C300.281 251.108 300.645 251.006 300.844 250.932L300.537 249.528C300.423 249.551 300.213 249.602 299.94 249.602C299.389 249.602 298.895 249.42 298.895 248.438V243.636H300.685V242.273ZM313.338 244.403C312.986 243.045 311.923 242.159 310.037 242.159C308.065 242.159 306.668 243.199 306.668 244.744C306.668 245.983 307.418 246.807 309.054 247.17L310.531 247.494C311.372 247.682 311.764 248.057 311.764 248.602C311.764 249.278 311.043 249.807 309.929 249.807C308.912 249.807 308.259 249.369 308.054 248.511L306.412 248.761C306.696 250.307 307.98 251.176 309.94 251.176C312.048 251.176 313.509 250.057 313.509 248.477C313.509 247.244 312.724 246.483 311.122 246.114L309.736 245.795C308.776 245.568 308.361 245.244 308.366 244.653C308.361 243.983 309.088 243.506 310.054 243.506C311.111 243.506 311.599 244.091 311.798 244.676L313.338 244.403ZM319.053 251.176C321.115 251.176 322.45 249.938 322.638 248.239H320.984C320.768 249.182 320.036 249.739 319.064 249.739C317.626 249.739 316.7 248.54 316.7 246.636C316.7 244.767 317.643 243.591 319.064 243.591C320.143 243.591 320.803 244.273 320.984 245.091H322.638C322.456 243.33 321.018 242.159 319.036 242.159C316.575 242.159 314.984 244.011 314.984 246.676C314.984 249.307 316.518 251.176 319.053 251.176ZM326.994 251.193C328.438 251.193 329.25 250.46 329.574 249.807H329.642V251H331.301V245.205C331.301 242.665 329.301 242.159 327.915 242.159C326.335 242.159 324.881 242.795 324.312 244.386L325.909 244.75C326.159 244.131 326.795 243.534 327.938 243.534C329.034 243.534 329.597 244.108 329.597 245.097V245.136C329.597 245.756 328.96 245.744 327.392 245.926C325.739 246.119 324.045 246.551 324.045 248.534C324.045 250.25 325.335 251.193 326.994 251.193ZM327.364 249.83C326.403 249.83 325.71 249.398 325.71 248.557C325.71 247.648 326.517 247.324 327.5 247.193C328.051 247.119 329.358 246.972 329.602 246.727V247.852C329.602 248.886 328.778 249.83 327.364 249.83ZM335.263 245.818C335.263 244.426 336.115 243.631 337.297 243.631C338.45 243.631 339.149 244.386 339.149 245.653V251H340.848V245.449C340.848 243.29 339.661 242.159 337.876 242.159C336.564 242.159 335.706 242.767 335.303 243.693H335.195V242.273H333.564V251H335.263V245.818ZM344.825 245.818C344.825 244.426 345.678 243.631 346.859 243.631C348.013 243.631 348.712 244.386 348.712 245.653V251H350.411V245.449C350.411 243.29 349.223 242.159 347.439 242.159C346.126 242.159 345.268 242.767 344.865 243.693H344.757V242.273H343.126V251H344.825V245.818ZM356.45 251.176C358.354 251.176 359.7 250.239 360.087 248.818L358.479 248.528C358.172 249.352 357.433 249.773 356.467 249.773C355.013 249.773 354.036 248.83 353.99 247.148H360.195V246.545C360.195 243.392 358.308 242.159 356.331 242.159C353.899 242.159 352.297 244.011 352.297 246.693C352.297 249.403 353.876 251.176 356.45 251.176ZM353.996 245.875C354.064 244.636 354.962 243.562 356.342 243.562C357.661 243.562 358.524 244.54 358.53 245.875H353.996ZM362.08 251H363.778V245.67C363.778 244.528 364.659 243.705 365.864 243.705C366.216 243.705 366.614 243.767 366.75 243.807V242.182C366.58 242.159 366.244 242.142 366.028 242.142C365.006 242.142 364.131 242.722 363.812 243.659H363.722V242.273H362.08V251ZM368.339 251.108C368.959 251.108 369.476 250.602 369.476 249.972C369.476 249.352 368.959 248.841 368.339 248.841C367.714 248.841 367.203 249.352 367.203 249.972C367.203 250.602 367.714 251.108 368.339 251.108ZM29.3963 269.148C28.9986 266.659 27.0497 265.205 24.5895 265.205C21.5781 265.205 19.3565 267.46 19.3565 271.182C19.3565 274.903 21.5668 277.159 24.5895 277.159C27.1463 277.159 29.0156 275.557 29.3963 273.256L27.6236 273.25C27.3224 274.739 26.0724 275.557 24.6009 275.557C22.6065 275.557 21.1009 274.028 21.1009 271.182C21.1009 268.358 22.6009 266.807 24.6065 266.807C26.0895 266.807 27.3338 267.642 27.6236 269.148H29.3963ZM33.0597 265.364H31.3608V277H33.0597V265.364ZM35.3452 277H37.044V268.273H35.3452V277ZM36.2031 266.926C36.7884 266.926 37.277 266.472 37.277 265.915C37.277 265.358 36.7884 264.898 36.2031 264.898C35.6122 264.898 35.1293 265.358 35.1293 265.915C35.1293 266.472 35.6122 266.926 36.2031 266.926ZM43.0057 277.176C45.0682 277.176 46.4034 275.938 46.5909 274.239H44.9375C44.7216 275.182 43.9886 275.739 43.017 275.739C41.5795 275.739 40.6534 274.54 40.6534 272.636C40.6534 270.767 41.5966 269.591 43.017 269.591C44.0966 269.591 44.7557 270.273 44.9375 271.091H46.5909C46.4091 269.33 44.9716 268.159 42.9886 268.159C40.5284 268.159 38.9375 270.011 38.9375 272.676C38.9375 275.307 40.4716 277.176 43.0057 277.176ZM48.4077 277H50.1065V273.903L50.9531 273.057L53.919 277H56.0043L52.2315 272.017L55.7656 268.273H53.7315L50.2543 271.966H50.1065V265.364H48.4077V277ZM206.513 268.273H204.723V266.182H203.024V268.273H201.746V269.636H203.024V274.79C203.018 276.375 204.229 277.142 205.57 277.114C206.109 277.108 206.473 277.006 206.672 276.932L206.365 275.528C206.251 275.551 206.041 275.602 205.768 275.602C205.217 275.602 204.723 275.42 204.723 274.438V269.636H206.513V268.273ZM211.974 277.176C214.435 277.176 216.043 275.375 216.043 272.676C216.043 269.96 214.435 268.159 211.974 268.159C209.514 268.159 207.906 269.96 207.906 272.676C207.906 275.375 209.514 277.176 211.974 277.176ZM211.98 275.75C210.372 275.75 209.622 274.347 209.622 272.67C209.622 271 210.372 269.58 211.98 269.58C213.577 269.58 214.327 271 214.327 272.67C214.327 274.347 213.577 275.75 211.98 275.75ZM225.44 277.17C227.031 277.17 227.656 276.199 227.963 275.642H228.105V277H229.764V265.364H228.065V269.688H227.963C227.656 269.148 227.077 268.159 225.452 268.159C223.344 268.159 221.793 269.824 221.793 272.653C221.793 275.477 223.321 277.17 225.44 277.17ZM225.815 275.722C224.298 275.722 223.509 274.386 223.509 272.636C223.509 270.903 224.281 269.602 225.815 269.602C227.298 269.602 228.094 270.812 228.094 272.636C228.094 274.472 227.281 275.722 225.815 275.722ZM232.189 277H233.888V268.273H232.189V277ZM233.047 266.926C233.632 266.926 234.121 266.472 234.121 265.915C234.121 265.358 233.632 264.898 233.047 264.898C232.456 264.898 231.973 265.358 231.973 265.915C231.973 266.472 232.456 266.926 233.047 266.926ZM242.713 270.403C242.361 269.045 241.298 268.159 239.412 268.159C237.44 268.159 236.043 269.199 236.043 270.744C236.043 271.983 236.793 272.807 238.429 273.17L239.906 273.494C240.747 273.682 241.139 274.057 241.139 274.602C241.139 275.278 240.418 275.807 239.304 275.807C238.287 275.807 237.634 275.369 237.429 274.511L235.787 274.761C236.071 276.307 237.355 277.176 239.315 277.176C241.423 277.176 242.884 276.057 242.884 274.477C242.884 273.244 242.099 272.483 240.497 272.114L239.111 271.795C238.151 271.568 237.736 271.244 237.741 270.653C237.736 269.983 238.463 269.506 239.429 269.506C240.486 269.506 240.974 270.091 241.173 270.676L242.713 270.403ZM244.751 280.273H246.45V275.642H246.553C246.859 276.199 247.484 277.17 249.075 277.17C251.189 277.17 252.723 275.477 252.723 272.653C252.723 269.824 251.166 268.159 249.058 268.159C247.439 268.159 246.854 269.148 246.553 269.688H246.411V268.273H244.751V280.273ZM246.416 272.636C246.416 270.812 247.212 269.602 248.695 269.602C250.234 269.602 251.007 270.903 251.007 272.636C251.007 274.386 250.212 275.722 248.695 275.722C247.234 275.722 246.416 274.472 246.416 272.636ZM256.325 265.364H254.626V277H256.325V265.364ZM261.151 277.193C262.594 277.193 263.406 276.46 263.73 275.807H263.798V277H265.457V271.205C265.457 268.665 263.457 268.159 262.071 268.159C260.491 268.159 259.037 268.795 258.469 270.386L260.065 270.75C260.315 270.131 260.952 269.534 262.094 269.534C263.19 269.534 263.753 270.108 263.753 271.097V271.136C263.753 271.756 263.116 271.744 261.548 271.926C259.895 272.119 258.202 272.551 258.202 274.534C258.202 276.25 259.491 277.193 261.151 277.193ZM261.52 275.83C260.56 275.83 259.866 275.398 259.866 274.557C259.866 273.648 260.673 273.324 261.656 273.193C262.207 273.119 263.514 272.972 263.759 272.727V273.852C263.759 274.886 262.935 275.83 261.52 275.83ZM268.482 280.273C269.885 280.273 270.771 279.54 271.277 278.165L274.885 268.29L273.05 268.273L270.839 275.045H270.749L268.538 268.273H266.72L269.913 277.114L269.703 277.693C269.271 278.852 268.663 278.949 267.732 278.693L267.322 280.085C267.527 280.176 267.97 280.273 268.482 280.273ZM283.987 277.17C285.578 277.17 286.203 276.199 286.51 275.642H286.652V277H288.311V265.364H286.612V269.688H286.51C286.203 269.148 285.624 268.159 283.999 268.159C281.891 268.159 280.339 269.824 280.339 272.653C280.339 275.477 281.868 277.17 283.987 277.17ZM284.362 275.722C282.845 275.722 282.055 274.386 282.055 272.636C282.055 270.903 282.828 269.602 284.362 269.602C285.845 269.602 286.641 270.812 286.641 272.636C286.641 274.472 285.828 275.722 284.362 275.722ZM290.736 277H292.435V271.67C292.435 270.528 293.315 269.705 294.52 269.705C294.872 269.705 295.27 269.767 295.406 269.807V268.182C295.236 268.159 294.901 268.142 294.685 268.142C293.662 268.142 292.787 268.722 292.469 269.659H292.378V268.273H290.736V277ZM296.876 277H298.575V268.273H296.876V277ZM297.734 266.926C298.32 266.926 298.808 266.472 298.808 265.915C298.808 265.358 298.32 264.898 297.734 264.898C297.143 264.898 296.661 265.358 296.661 265.915C296.661 266.472 297.143 266.926 297.734 266.926ZM308.327 268.273H306.503L304.298 274.989H304.207L301.997 268.273H300.173L303.344 277H305.162L308.327 268.273ZM313.372 277.176C315.276 277.176 316.622 276.239 317.009 274.818L315.401 274.528C315.094 275.352 314.355 275.773 313.389 275.773C311.935 275.773 310.957 274.83 310.912 273.148H317.116V272.545C317.116 269.392 315.23 268.159 313.253 268.159C310.821 268.159 309.219 270.011 309.219 272.693C309.219 275.403 310.798 277.176 313.372 277.176ZM310.918 271.875C310.986 270.636 311.884 269.562 313.264 269.562C314.582 269.562 315.446 270.54 315.452 271.875H310.918ZM319.001 277H320.7V271.67C320.7 270.528 321.581 269.705 322.786 269.705C323.138 269.705 323.536 269.767 323.672 269.807V268.182C323.501 268.159 323.166 268.142 322.95 268.142C321.928 268.142 321.053 268.722 320.734 269.659H320.643V268.273H319.001V277ZM329.376 277H331.075V271.67C331.075 270.528 331.956 269.705 333.161 269.705C333.513 269.705 333.911 269.767 334.047 269.807V268.182C333.876 268.159 333.541 268.142 333.325 268.142C332.303 268.142 331.428 268.722 331.109 269.659H331.018V268.273H329.376V277ZM338.966 277.176C340.869 277.176 342.216 276.239 342.602 274.818L340.994 274.528C340.688 275.352 339.949 275.773 338.983 275.773C337.528 275.773 336.551 274.83 336.506 273.148H342.71V272.545C342.71 269.392 340.824 268.159 338.847 268.159C336.415 268.159 334.812 270.011 334.812 272.693C334.812 275.403 336.392 277.176 338.966 277.176ZM336.511 271.875C336.58 270.636 337.477 269.562 338.858 269.562C340.176 269.562 341.04 270.54 341.045 271.875H336.511ZM348.271 277.176C350.334 277.176 351.669 275.938 351.857 274.239H350.203C349.987 275.182 349.254 275.739 348.283 275.739C346.845 275.739 345.919 274.54 345.919 272.636C345.919 270.767 346.862 269.591 348.283 269.591C349.362 269.591 350.021 270.273 350.203 271.091H351.857C351.675 269.33 350.237 268.159 348.254 268.159C345.794 268.159 344.203 270.011 344.203 272.676C344.203 275.307 345.737 277.176 348.271 277.176ZM357.349 277.176C359.81 277.176 361.418 275.375 361.418 272.676C361.418 269.96 359.81 268.159 357.349 268.159C354.889 268.159 353.281 269.96 353.281 272.676C353.281 275.375 354.889 277.176 357.349 277.176ZM357.355 275.75C355.747 275.75 354.997 274.347 354.997 272.67C354.997 271 355.747 269.58 357.355 269.58C358.952 269.58 359.702 271 359.702 272.67C359.702 274.347 358.952 275.75 357.355 275.75ZM363.314 277H365.013V271.67C365.013 270.528 365.893 269.705 367.098 269.705C367.45 269.705 367.848 269.767 367.984 269.807V268.182C367.814 268.159 367.479 268.142 367.263 268.142C366.24 268.142 365.365 268.722 365.047 269.659H364.956V268.273H363.314V277ZM372.409 277.17C374 277.17 374.625 276.199 374.932 275.642H375.074V277H376.733V265.364H375.034V269.688H374.932C374.625 269.148 374.045 268.159 372.42 268.159C370.312 268.159 368.761 269.824 368.761 272.653C368.761 275.477 370.29 277.17 372.409 277.17ZM372.784 275.722C371.267 275.722 370.477 274.386 370.477 272.636C370.477 270.903 371.25 269.602 372.784 269.602C374.267 269.602 375.062 270.812 375.062 272.636C375.062 274.472 374.25 275.722 372.784 275.722ZM380.277 277.108C380.896 277.108 381.413 276.602 381.413 275.972C381.413 275.352 380.896 274.841 380.277 274.841C379.652 274.841 379.141 275.352 379.141 275.972C379.141 276.602 379.652 277.108 380.277 277.108Z" fill="#8E919C"/>
<path d="M67.8778 268.562H69.9062C69.8665 266.597 68.1903 265.205 65.7131 265.205C63.2699 265.205 61.4347 266.58 61.4403 268.636C61.4403 270.307 62.6278 271.267 64.5426 271.761L65.8665 272.102C67.1222 272.42 67.9517 272.812 67.9574 273.716C67.9517 274.71 67.0085 275.375 65.6335 275.375C64.3153 275.375 63.2926 274.784 63.2074 273.562H61.1335C61.2188 275.875 62.9403 277.176 65.6506 277.176C68.4403 277.176 70.0597 275.784 70.0653 273.733C70.0597 271.716 68.3949 270.795 66.6449 270.381L65.554 270.108C64.5994 269.881 63.5653 269.477 63.5767 268.506C63.5824 267.631 64.3665 266.989 65.6847 266.989C66.9403 266.989 67.7699 267.574 67.8778 268.562ZM75.6605 277.17C77.8537 277.17 79.2514 275.869 79.3991 274.017H77.4332C77.2571 274.955 76.581 275.494 75.6776 275.494C74.3935 275.494 73.5639 274.42 73.5639 272.636C73.5639 270.875 74.4105 269.818 75.6776 269.818C76.6662 269.818 77.2741 270.455 77.4332 271.295H79.3991C79.2571 269.403 77.7798 268.159 75.6491 268.159C73.0923 268.159 71.4787 270.006 71.4787 272.67C71.4787 275.312 73.0526 277.17 75.6605 277.17ZM83.5994 277.176C84.9688 277.176 85.7869 276.534 86.1619 275.801H86.2301V277H88.2074V271.159C88.2074 268.852 86.3267 268.159 84.6619 268.159C82.8267 268.159 81.4176 268.977 80.9631 270.568L82.8835 270.841C83.0881 270.244 83.6676 269.733 84.6733 269.733C85.6278 269.733 86.1506 270.222 86.1506 271.08V271.114C86.1506 271.705 85.5312 271.733 83.9915 271.898C82.2983 272.08 80.679 272.585 80.679 274.551C80.679 276.267 81.9347 277.176 83.5994 277.176ZM84.1335 275.665C83.2756 275.665 82.6619 275.273 82.6619 274.517C82.6619 273.727 83.3494 273.398 84.2699 273.267C84.8097 273.193 85.8892 273.057 86.1562 272.841V273.869C86.1562 274.841 85.3722 275.665 84.1335 275.665ZM92.3324 271.886C92.3324 270.625 93.0938 269.898 94.179 269.898C95.2415 269.898 95.8778 270.597 95.8778 271.761V277H97.9347V271.443C97.9403 269.352 96.7472 268.159 94.946 268.159C93.6392 268.159 92.7415 268.784 92.3438 269.756H92.2415V268.273H90.2756V277H92.3324V271.886ZM104.085 277H106.193V272.057H111.028V270.29H106.193V267.131H111.54V265.364H104.085V277ZM113.369 277H115.426V268.273H113.369V277ZM114.403 267.034C115.057 267.034 115.591 266.534 115.591 265.92C115.591 265.301 115.057 264.801 114.403 264.801C113.744 264.801 113.21 265.301 113.21 265.92C113.21 266.534 113.744 267.034 114.403 267.034ZM119.598 271.886C119.598 270.625 120.359 269.898 121.445 269.898C122.507 269.898 123.143 270.597 123.143 271.761V277H125.2V271.443C125.206 269.352 124.013 268.159 122.212 268.159C120.905 268.159 120.007 268.784 119.609 269.756H119.507V268.273H117.541V277H119.598V271.886ZM131.087 280.455C133.445 280.455 135.183 279.375 135.183 277.142V268.273H133.155V269.716H133.041C132.729 269.085 132.075 268.159 130.536 268.159C128.518 268.159 126.933 269.739 126.933 272.608C126.933 275.455 128.518 276.875 130.53 276.875C132.024 276.875 132.723 276.074 133.041 275.432H133.143V277.085C133.143 278.369 132.291 278.898 131.121 278.898C129.882 278.898 129.337 278.312 129.087 277.801L127.234 278.25C127.609 279.472 128.865 280.455 131.087 280.455ZM131.104 275.261C129.746 275.261 129.03 274.205 129.03 272.597C129.03 271.011 129.734 269.847 131.104 269.847C132.428 269.847 133.155 270.943 133.155 272.597C133.155 274.261 132.416 275.261 131.104 275.261ZM141.155 277.17C143.189 277.17 144.587 276.176 144.95 274.659L143.03 274.443C142.751 275.182 142.07 275.568 141.183 275.568C139.854 275.568 138.973 274.693 138.956 273.199H145.036V272.568C145.036 269.506 143.195 268.159 141.047 268.159C138.547 268.159 136.916 269.994 136.916 272.688C136.916 275.426 138.524 277.17 141.155 277.17ZM138.962 271.812C139.024 270.699 139.848 269.761 141.075 269.761C142.257 269.761 143.053 270.625 143.064 271.812H138.962ZM146.776 277H148.832V271.869C148.832 270.761 149.668 269.977 150.798 269.977C151.145 269.977 151.577 270.04 151.753 270.097V268.205C151.565 268.17 151.241 268.148 151.014 268.148C150.014 268.148 149.179 268.716 148.861 269.727H148.77V268.273H146.776V277ZM153.119 280.273H155.176V275.625H155.261C155.585 276.261 156.261 277.153 157.761 277.153C159.818 277.153 161.358 275.523 161.358 272.648C161.358 269.739 159.773 268.159 157.756 268.159C156.216 268.159 155.574 269.085 155.261 269.716H155.142V268.273H153.119V280.273ZM155.136 272.636C155.136 270.943 155.864 269.847 157.188 269.847C158.557 269.847 159.261 271.011 159.261 272.636C159.261 274.273 158.545 275.466 157.188 275.466C155.875 275.466 155.136 274.33 155.136 272.636ZM163.119 277H165.176V271.869C165.176 270.761 166.011 269.977 167.142 269.977C167.489 269.977 167.92 270.04 168.097 270.097V268.205C167.909 268.17 167.585 268.148 167.358 268.148C166.358 268.148 165.523 268.716 165.205 269.727H165.114V268.273H163.119V277ZM169.463 277H171.52V268.273H169.463V277ZM170.497 267.034C171.151 267.034 171.685 266.534 171.685 265.92C171.685 265.301 171.151 264.801 170.497 264.801C169.838 264.801 169.304 265.301 169.304 265.92C169.304 266.534 169.838 267.034 170.497 267.034ZM175.692 271.886C175.692 270.625 176.453 269.898 177.538 269.898C178.601 269.898 179.237 270.597 179.237 271.761V277H181.294V271.443C181.3 269.352 180.107 268.159 178.305 268.159C176.999 268.159 176.101 268.784 175.703 269.756H175.601V268.273H173.635V277H175.692V271.886ZM187.743 268.273H186.021V266.182H183.964V268.273H182.726V269.864H183.964V274.716C183.953 276.358 185.146 277.165 186.692 277.119C187.277 277.102 187.68 276.989 187.902 276.915L187.555 275.307C187.442 275.335 187.209 275.386 186.953 275.386C186.436 275.386 186.021 275.205 186.021 274.375V269.864H187.743V268.273ZM196.236 270.58C195.952 269.102 194.77 268.159 192.724 268.159C190.622 268.159 189.19 269.193 189.196 270.807C189.19 272.08 189.974 272.92 191.651 273.267L193.139 273.58C193.94 273.756 194.315 274.08 194.315 274.574C194.315 275.17 193.668 275.619 192.69 275.619C191.747 275.619 191.134 275.21 190.957 274.426L188.952 274.619C189.207 276.222 190.554 277.17 192.696 277.17C194.878 277.17 196.418 276.04 196.423 274.386C196.418 273.142 195.616 272.381 193.969 272.023L192.48 271.705C191.594 271.506 191.241 271.199 191.247 270.693C191.241 270.102 191.895 269.693 192.753 269.693C193.702 269.693 194.202 270.21 194.361 270.784L196.236 270.58Z" fill="#22D389"/>
<path d="M16.598 188.389H21.0352C20.9482 184.088 17.2816 181.043 11.8626 181.043C6.51811 181.043 2.50355 184.051 2.51598 188.55C2.51598 192.204 5.11364 194.305 9.3022 195.386L12.1982 196.132C14.945 196.828 16.7596 197.686 16.772 199.662C16.7596 201.837 14.6964 203.291 11.6886 203.291C8.80504 203.291 6.56783 201.998 6.38139 199.326H1.84482C2.03125 204.385 5.79723 207.231 11.7259 207.231C17.8285 207.231 21.3707 204.186 21.3832 199.699C21.3707 195.287 17.729 193.273 13.9009 192.366L11.5146 191.769C9.42649 191.272 7.16442 190.39 7.18928 188.264C7.2017 186.35 8.9169 184.946 11.8004 184.946C14.5472 184.946 16.3619 186.226 16.598 188.389ZM33.6226 207.219C38.4202 207.219 41.4777 204.372 41.8009 200.32H37.5004C37.1151 202.371 35.6361 203.552 33.6599 203.552C30.8509 203.552 29.0363 201.203 29.0363 197.3C29.0363 193.447 30.8882 191.135 33.6599 191.135C35.8225 191.135 37.1524 192.528 37.5004 194.367H41.8009C41.4901 190.228 38.2586 187.506 33.5977 187.506C28.0047 187.506 24.4749 191.546 24.4749 197.375C24.4749 203.154 27.9177 207.219 33.6226 207.219ZM50.989 207.231C53.9844 207.231 55.7741 205.827 56.5945 204.223H56.7436V206.846H61.0689V194.069C61.0689 189.023 56.9549 187.506 53.3132 187.506C49.2987 187.506 46.2163 189.296 45.2219 192.776L49.4229 193.373C49.8704 192.068 51.1381 190.949 53.3381 190.949C55.4261 190.949 56.5696 192.018 56.5696 193.895V193.969C56.5696 195.262 55.2148 195.324 51.8466 195.684C48.1428 196.082 44.6005 197.188 44.6005 201.489C44.6005 205.242 47.3473 207.231 50.989 207.231ZM52.1573 203.925C50.2805 203.925 48.9382 203.067 48.9382 201.414C48.9382 199.687 50.4421 198.966 52.4556 198.68C53.6364 198.518 55.9979 198.22 56.582 197.748V199.997C56.582 202.123 54.8668 203.925 52.1573 203.925ZM70.0923 195.66C70.0923 192.9 71.7578 191.309 74.1317 191.309C76.456 191.309 77.848 192.838 77.848 195.386V206.846H82.3473V194.69C82.3597 190.116 79.7496 187.506 75.8097 187.506C72.951 187.506 70.9872 188.873 70.1172 190.999H69.8935V187.755H65.593V206.846H70.0923V195.66ZM102.687 207.181C105.969 207.181 107.448 205.23 108.156 203.838H108.43V206.846H112.854V181.391H108.343V190.912H108.156C107.472 189.532 106.068 187.506 102.7 187.506C98.2875 187.506 94.8198 190.961 94.8198 197.325C94.8198 203.614 98.188 207.181 102.687 207.181ZM103.943 203.49C100.972 203.49 99.4061 200.88 99.4061 197.3C99.4061 193.746 100.947 191.198 103.943 191.198C106.839 191.198 108.43 193.596 108.43 197.3C108.43 201.004 106.814 203.49 103.943 203.49ZM117.649 206.846H122.148V195.622C122.148 193.199 123.975 191.483 126.448 191.483C127.207 191.483 128.151 191.62 128.536 191.744V187.606C128.126 187.531 127.418 187.481 126.921 187.481C124.733 187.481 122.906 188.724 122.21 190.937H122.011V187.755H117.649V206.846ZM131.526 206.846H136.025V187.755H131.526V206.846ZM133.788 185.045C135.217 185.045 136.385 183.952 136.385 182.609C136.385 181.254 135.217 180.161 133.788 180.161C132.346 180.161 131.178 181.254 131.178 182.609C131.178 183.952 132.346 185.045 133.788 185.045ZM157.704 187.755H152.919L148.519 201.936H148.32L143.933 187.755H139.135L145.934 206.846H150.906L157.704 187.755ZM168.62 207.219C173.07 207.219 176.127 205.044 176.922 201.725L172.722 201.253C172.112 202.868 170.621 203.714 168.682 203.714C165.774 203.714 163.847 201.8 163.81 198.531H177.109V197.151C177.109 190.452 173.082 187.506 168.384 187.506C162.915 187.506 159.348 191.521 159.348 197.412C159.348 203.403 162.865 207.219 168.62 207.219ZM163.822 195.498C163.959 193.062 165.761 191.011 168.446 191.011C171.031 191.011 172.771 192.9 172.796 195.498H163.822ZM180.915 206.846H185.415V195.622C185.415 193.199 187.242 191.483 189.715 191.483C190.473 191.483 191.418 191.62 191.803 191.744V187.606C191.393 187.531 190.684 187.481 190.187 187.481C188 187.481 186.173 188.724 185.477 190.937H185.278V187.755H180.915V206.846ZM213.144 187.755H209.179V186.251C209.179 184.759 209.8 183.927 211.478 183.927C212.187 183.927 212.783 184.088 213.156 184.2L214.063 180.72C213.479 180.521 212.199 180.198 210.645 180.198C207.327 180.198 204.68 182.1 204.68 185.953V187.755H201.858V191.235H204.68V206.846H209.179V191.235H213.144V187.755ZM216.667 206.846H221.167V187.755H216.667V206.846ZM218.929 185.045C220.359 185.045 221.527 183.952 221.527 182.609C221.527 181.254 220.359 180.161 218.929 180.161C217.488 180.161 216.319 181.254 216.319 182.609C216.319 183.952 217.488 185.045 218.929 185.045ZM230.293 195.66C230.293 192.9 231.958 191.309 234.332 191.309C236.656 191.309 238.048 192.838 238.048 195.386V206.846H242.547V194.69C242.56 190.116 239.95 187.506 236.01 187.506C233.151 187.506 231.187 188.873 230.317 190.999H230.094V187.755H225.793V206.846H230.293V195.66ZM255.424 214.403C260.582 214.403 264.385 212.041 264.385 207.156V187.755H259.948V190.912H259.699C259.016 189.532 257.587 187.506 254.218 187.506C249.806 187.506 246.338 190.961 246.338 197.238C246.338 203.465 249.806 206.572 254.206 206.572C257.475 206.572 259.003 204.82 259.699 203.415H259.923V207.032C259.923 209.841 258.059 210.997 255.498 210.997C252.789 210.997 251.596 209.717 251.049 208.598L246.997 209.58C247.817 212.252 250.564 214.403 255.424 214.403ZM255.461 203.042C252.491 203.042 250.925 200.731 250.925 197.213C250.925 193.746 252.466 191.198 255.461 191.198C258.357 191.198 259.948 193.596 259.948 197.213C259.948 200.855 258.332 203.042 255.461 203.042ZM277.448 207.219C281.898 207.219 284.955 205.044 285.751 201.725L281.55 201.253C280.941 202.868 279.449 203.714 277.51 203.714C274.602 203.714 272.675 201.8 272.638 198.531H285.937V197.151C285.937 190.452 281.91 187.506 277.212 187.506C271.743 187.506 268.176 191.521 268.176 197.412C268.176 203.403 271.693 207.219 277.448 207.219ZM272.65 195.498C272.787 193.062 274.589 191.011 277.274 191.011C279.859 191.011 281.599 192.9 281.624 195.498H272.65ZM289.743 206.846H294.243V195.622C294.243 193.199 296.07 191.483 298.543 191.483C299.301 191.483 300.246 191.62 300.631 191.744V187.606C300.221 187.531 299.513 187.481 299.015 187.481C296.828 187.481 295.001 188.724 294.305 190.937H294.106V187.755H289.743V206.846ZM303.62 214.005H308.12V203.838H308.306C309.015 205.23 310.494 207.181 313.775 207.181C318.274 207.181 321.642 203.614 321.642 197.325C321.642 190.961 318.175 187.506 313.762 187.506C310.394 187.506 308.99 189.532 308.306 190.912H308.045V187.755H303.62V214.005ZM308.033 197.3C308.033 193.596 309.624 191.198 312.52 191.198C315.515 191.198 317.056 193.746 317.056 197.3C317.056 200.88 315.49 203.49 312.52 203.49C309.648 203.49 308.033 201.004 308.033 197.3ZM325.495 206.846H329.995V195.622C329.995 193.199 331.822 191.483 334.295 191.483C335.053 191.483 335.998 191.62 336.383 191.744V187.606C335.973 187.531 335.265 187.481 334.767 187.481C332.58 187.481 330.753 188.724 330.057 190.937H329.858V187.755H325.495V206.846ZM339.372 206.846H343.872V187.755H339.372V206.846ZM341.634 185.045C343.064 185.045 344.232 183.952 344.232 182.609C344.232 181.254 343.064 180.161 341.634 180.161C340.193 180.161 339.024 181.254 339.024 182.609C339.024 183.952 340.193 185.045 341.634 185.045ZM352.998 195.66C352.998 192.9 354.663 191.309 357.037 191.309C359.361 191.309 360.753 192.838 360.753 195.386V206.846H365.253V194.69C365.265 190.116 362.655 187.506 358.715 187.506C355.856 187.506 353.892 188.873 353.022 190.999H352.799V187.755H348.498V206.846H352.998V195.66ZM379.359 187.755H375.593V183.181H371.094V187.755H368.385V191.235H371.094V201.849C371.069 205.441 373.679 207.206 377.06 207.107C378.34 207.069 379.223 206.821 379.707 206.659L378.949 203.142C378.701 203.204 378.191 203.316 377.632 203.316C376.501 203.316 375.593 202.918 375.593 201.104V191.235H379.359V187.755ZM397.938 192.801C397.316 189.569 394.731 187.506 390.257 187.506C385.658 187.506 382.526 189.768 382.538 193.298C382.526 196.082 384.241 197.922 387.907 198.68L391.164 199.363C392.916 199.749 393.737 200.457 393.737 201.539C393.737 202.844 392.32 203.825 390.182 203.825C388.119 203.825 386.776 202.931 386.391 201.215L382.004 201.638C382.563 205.143 385.509 207.219 390.194 207.219C394.967 207.219 398.335 204.745 398.348 201.128C398.335 198.406 396.583 196.741 392.979 195.958L389.722 195.262C387.783 194.827 387.013 194.156 387.025 193.05C387.013 191.757 388.442 190.862 390.319 190.862C392.394 190.862 393.488 191.993 393.836 193.248L397.938 192.801Z" fill="#0A1A47"/>
<path d="M241.73 71.7486C241.481 71.3428 241.324 70.8873 241.27 70.4143C241.216 69.9413 241.266 69.4621 241.418 69.0107C241.569 68.5593 241.817 68.1465 242.145 67.8015C242.473 67.4564 242.873 67.1875 243.316 67.0137L242.856 55.4497L248.004 58.5582L247.652 69.063C247.895 69.827 247.849 70.6534 247.523 71.3857C247.197 72.118 246.614 72.7054 245.884 73.0364C245.154 73.3674 244.328 73.4192 243.562 73.1818C242.796 72.9445 242.144 72.4345 241.73 71.7486Z" fill="#A0616A"/>
<path d="M248.603 64.2521L244.026 64.9834C243.834 65.014 243.637 65.0059 243.448 64.9595C243.259 64.9131 243.082 64.8292 242.926 64.713C242.769 64.5967 242.638 64.4504 242.54 64.2826C242.441 64.1148 242.377 63.929 242.351 63.7361L240.415 49.1528L230.847 36.0585C230.492 35.5736 230.241 35.0212 230.109 34.4354C229.976 33.8496 229.965 33.2429 230.075 32.6526C230.186 32.0623 230.417 31.501 230.753 31.0033C231.089 30.5055 231.524 30.0819 232.03 29.7585L232.029 29.7584C233.012 29.1304 234.204 28.9185 235.343 29.1693C236.482 29.4202 237.475 30.1132 238.103 31.096L247.875 46.3881L249.82 62.6399C249.833 62.7436 249.834 62.8483 249.824 62.9523C249.794 63.274 249.658 63.5764 249.437 63.8118C249.215 64.0471 248.922 64.2021 248.603 64.2521Z" fill="#0A1A47"/>
<path d="M232.824 118.38H228.853L226.964 103.065L232.824 103.066L232.824 118.38Z" fill="#A0616A"/>
<path d="M226.018 117.246H233.675V122.067H221.196C221.196 120.788 221.704 119.562 222.608 118.658C223.513 117.754 224.739 117.246 226.018 117.246Z" fill="#2F2E41"/>
<path d="M249.576 111.584L246.609 114.223L235.551 103.32L239.397 100.142L249.576 111.584Z" fill="#A0616A"/>
<path d="M243.734 115.26L249.455 110.171L252.66 113.773L243.336 122.067C242.915 121.594 242.592 121.043 242.384 120.445C242.176 119.847 242.088 119.213 242.125 118.581C242.162 117.949 242.323 117.331 242.599 116.761C242.875 116.191 243.261 115.681 243.734 115.26Z" fill="#2F2E41"/>
<path d="M192.926 30.8059C193.389 30.6979 193.871 30.6928 194.337 30.7911C194.803 30.8893 195.241 31.0885 195.622 31.3747C196.002 31.6608 196.316 32.0269 196.539 32.4471C196.763 32.8674 196.892 33.3316 196.917 33.807L208.034 37.023L203.459 40.9259L193.603 37.2736C192.801 37.2625 192.032 36.9578 191.44 36.4173C190.848 35.8767 190.475 35.1378 190.392 34.3406C190.308 33.5434 190.52 32.7432 190.987 32.0917C191.454 31.4403 192.144 30.9828 192.926 30.8059V30.8059Z" fill="#A0616A"/>
<path d="M227.583 19.7078C231.976 19.7078 235.538 16.1465 235.538 11.7534C235.538 7.36037 231.976 3.79907 227.583 3.79907C223.19 3.79907 219.629 7.36037 219.629 11.7534C219.629 16.1465 223.19 19.7078 227.583 19.7078Z" fill="#A0616A"/>
<path d="M233.312 115.513L227.786 115.07C227.429 115.042 227.095 114.883 226.848 114.624C226.6 114.365 226.457 114.024 226.446 113.666L224.903 67.0839C224.89 66.724 225.012 66.3722 225.244 66.0966C225.476 65.8211 225.802 65.6414 226.158 65.5924L237.176 64.055C237.403 64.0233 237.634 64.0456 237.851 64.1201C238.068 64.1946 238.264 64.3191 238.424 64.4836C238.583 64.6481 238.702 64.848 238.769 65.0669C238.837 65.2858 238.853 65.5177 238.814 65.7436L234.598 90.4377C234.586 90.5056 234.581 90.5744 234.582 90.6433L234.886 114.041C234.888 114.234 234.852 114.425 234.78 114.604C234.708 114.784 234.601 114.946 234.465 115.084C234.33 115.221 234.168 115.33 233.99 115.405C233.812 115.479 233.621 115.517 233.427 115.517C233.389 115.517 233.351 115.516 233.312 115.513Z" fill="#2F2E41"/>
<path d="M240.388 109.925L221.404 88.7972C221.267 88.6452 221.164 88.4662 221.101 88.2718C221.038 88.0774 221.017 87.872 221.038 87.6688L223.436 65.1911C223.475 64.8165 223.659 64.4718 223.947 64.2294C224.235 63.987 224.606 63.8659 224.982 63.8916L236.633 64.6683C236.856 64.6832 237.072 64.749 237.266 64.8607C237.459 64.9724 237.624 65.127 237.748 65.3126C237.872 65.4982 237.952 65.7099 237.981 65.9312C238.01 66.1525 237.988 66.3775 237.917 66.589L230.936 87.2409C230.869 87.4377 230.858 87.6493 230.903 87.8522C230.949 88.0551 231.049 88.2415 231.194 88.3908L247.32 105.103C247.473 105.262 247.588 105.453 247.656 105.662C247.725 105.871 247.745 106.093 247.716 106.311C247.686 106.529 247.607 106.738 247.486 106.921C247.364 107.105 247.202 107.258 247.013 107.37L242.213 110.206C241.923 110.377 241.583 110.442 241.251 110.391C240.918 110.34 240.613 110.175 240.388 109.925L240.388 109.925Z" fill="#2F2E41"/>
<path d="M226.16 24.6211C226.16 24.6211 231.018 20.4109 233.285 22.6779C233.285 22.6779 243.811 29.3171 239.277 47.4533C239.277 47.4533 243.163 64.9418 241.544 65.5895C239.924 66.2373 223.569 68.6662 222.274 66.7231C220.979 64.7799 220.331 34.9846 226.16 24.6211Z" fill="#0A1A47"/>
<path d="M197.863 39.6937L198.615 35.1201C198.647 34.9281 198.716 34.7443 198.82 34.5797C198.924 34.415 199.06 34.2728 199.219 34.1615C199.379 34.0501 199.559 33.9719 199.749 33.9313C199.94 33.8908 200.136 33.8888 200.327 33.9254L214.776 36.6946L230.222 31.7523C230.794 31.5693 231.398 31.5054 231.995 31.5646C232.593 31.6238 233.172 31.8048 233.697 32.0964C234.222 32.388 234.682 32.7841 235.048 33.2602C235.414 33.7363 235.679 34.2824 235.826 34.8647L235.826 34.8644C236.111 35.9952 235.936 37.1932 235.338 38.1946C234.74 39.1961 233.769 39.9191 232.638 40.2045L215.042 44.6461L199.008 41.358C198.906 41.3371 198.806 41.3053 198.71 41.2633C198.415 41.1332 198.171 40.9081 198.018 40.6239C197.864 40.3396 197.81 40.0123 197.863 39.6937Z" fill="#0A1A47"/>
<path d="M230.999 18.2058C231.726 16.5235 232.341 14.283 230.947 13.0936C230.138 12.4037 228.974 12.4023 227.914 12.3165C224.929 12.0746 221.856 10.7011 220.397 8.08568C218.938 5.47023 219.753 1.58112 222.505 0.401107C224.361 -0.394296 226.488 0.147551 228.43 0.698303L234.262 2.35191C235.994 2.84325 237.813 3.38511 239.061 4.68419C241.05 6.75603 240.902 10.2584 239.321 12.657C237.741 15.0556 235.362 17.5573 232.638 18.468L230.999 18.2058Z" fill="#2F2E41"/>
<path d="M274.676 122.751H194.359C194.273 122.751 194.191 122.717 194.13 122.656C194.069 122.596 194.035 122.513 194.035 122.427C194.035 122.341 194.069 122.259 194.13 122.198C194.191 122.138 194.273 122.104 194.359 122.104H274.676C274.762 122.104 274.845 122.138 274.905 122.198C274.966 122.259 275 122.341 275 122.427C275 122.513 274.966 122.596 274.905 122.656C274.845 122.717 274.762 122.751 274.676 122.751Z" fill="#3F3D56"/>
<path d="M128.035 29.4615C127.643 29.5822 127.226 29.5992 126.825 29.5108C126.425 29.4224 126.055 29.2319 125.753 28.9582C125.451 28.6846 125.228 28.3376 125.106 27.9522C124.984 27.5669 124.967 27.1567 125.058 26.763C126.417 21.2036 131.587 7.60817 150.423 1.88993C158.581 -0.587001 166.406 -0.629286 173.669 1.76332C179.644 3.72351 183.61 6.79095 185.508 8.27355C185.99 8.64838 186.3 9.19606 186.372 9.79611C186.443 10.3962 186.269 10.9994 185.887 11.4732C185.882 11.4791 185.878 11.4849 185.873 11.4907C185.481 11.966 184.915 12.2709 184.297 12.3399C183.679 12.4089 183.058 12.2364 182.568 11.8595C179.13 9.19758 168.698 1.11077 151.791 6.24363C135.282 11.2556 130.798 22.9787 129.635 27.7751C129.547 28.1713 129.351 28.5368 129.07 28.8335C128.789 29.1302 128.431 29.3471 128.035 29.4615L128.035 29.4615Z" fill="#22D389"/>
<path d="M179.375 60.9501C179.188 61.0095 178.994 61.0454 178.797 61.0568C164.083 61.8357 154.721 49.8215 154.336 49.3206L154.265 49.205C154.031 48.8473 148.366 40.3769 150.86 33.6498C152.005 30.5743 154.538 28.4157 158.411 27.2401C162.012 26.1468 164.959 26.4701 167.467 28.2304C169.524 29.6647 170.842 31.8035 172.12 33.8688C174.777 38.1572 176.405 40.3391 181.456 39.0803C183.673 38.5271 184.709 36.8232 185.182 35.4959C186.455 31.884 185.326 26.9601 182.34 23.2348C178.482 18.4017 167.685 10.3744 154.363 14.4187C148.674 16.1458 144.019 19.5493 140.901 24.2356C138.318 28.1249 136.816 32.9553 136.784 37.46C136.732 45.8475 143.726 56.8821 143.792 56.982C143.953 57.2352 144.062 57.517 144.112 57.8115C144.163 58.106 144.153 58.4073 144.085 58.6982C144.017 58.9891 143.891 59.264 143.715 59.5071C143.538 59.7502 143.315 59.9568 143.057 60.1151C143.05 60.1195 143.043 60.1238 143.036 60.1281C142.508 60.4516 141.872 60.5581 141.265 60.4246C140.658 60.2911 140.129 59.9284 139.792 59.4146C139.476 58.91 132.007 47.1445 132.068 37.4507C132.151 26.9434 138.648 14.4033 152.99 10.0494C159.619 8.03684 166.585 8.3751 173.141 11.0167C178.222 13.0767 182.925 16.4868 186.034 20.3807C190.005 25.3509 191.404 31.8569 189.596 36.9347C188.391 40.3199 185.896 42.6557 182.58 43.4908C173.938 45.6514 170.552 40.2117 168.083 36.2436C165.548 32.1756 164.145 30.2682 159.763 31.5986C157.357 32.3291 155.875 33.4997 155.251 35.1815C154.403 37.4805 155.207 40.4273 156.031 42.4931C156.039 42.5147 156.048 42.5362 156.056 42.5577C157.113 45.1835 158.761 47.5397 160.877 49.449C164.268 52.526 170.562 56.9127 178.584 56.4897C179.197 56.4523 179.8 56.6558 180.261 57.0555C180.722 57.4552 181.002 58.0184 181.04 58.6211C181.04 58.6284 181.041 58.6356 181.041 58.6429C181.06 59.154 180.907 59.6569 180.606 60.074C180.305 60.491 179.872 60.7989 179.375 60.9501L179.375 60.9501Z" fill="#22D389"/>
<path d="M161.53 65.2691C161.223 65.3624 160.9 65.3936 160.581 65.3608C160.261 65.328 159.952 65.2319 159.672 65.0783C152.414 61.0372 147.319 55.6017 143.651 47.9836L143.636 47.9366C141.324 42.8572 139.932 35.0968 143.002 28.5377C145.269 23.698 149.523 20.2962 155.626 18.4433C162.845 16.2518 169.566 17.8654 175.083 23.087C177.592 25.497 179.632 28.3367 181.103 31.4667C181.338 32.0298 181.337 32.6611 181.102 33.2239C180.866 33.7867 180.415 34.2358 179.845 34.4742C179.276 34.7125 178.633 34.7208 178.058 34.4974C177.482 34.274 177.018 33.8367 176.768 33.2802C175.522 30.6679 173.802 28.3008 171.692 26.2951C167.44 22.3193 162.497 21.1437 156.984 22.8176C152.219 24.2641 148.938 26.8212 147.259 30.419C144.837 35.5976 146.084 42.0639 147.893 46.0436C151.128 52.7813 155.615 57.5606 162.003 61.1111C162.267 61.2573 162.499 61.4532 162.686 61.6875C162.873 61.9219 163.011 62.1901 163.092 62.4769C163.173 62.7637 163.196 63.0634 163.16 63.359C163.123 63.6545 163.028 63.9401 162.879 64.1994C162.873 64.2097 162.867 64.2199 162.861 64.2301C162.564 64.7267 162.089 65.097 161.53 65.2691Z" fill="#22D389"/>
<path d="M162.291 42.495C163.949 42.495 165.293 41.1741 165.293 39.5446C165.293 37.9152 163.949 36.5942 162.291 36.5942C160.633 36.5942 159.289 37.9152 159.289 39.5446C159.289 41.1741 160.633 42.495 162.291 42.495Z" fill="#E6E6E6"/>
</svg>
