<svg width="150" height="168" viewBox="0 0 150 168" fill="none" xmlns="http://www.w3.org/2000/svg">
<path d="M142.943 157.812C142.008 158.141 141.004 158.223 140.028 158.051C139.052 157.879 138.137 157.459 137.37 156.831C135.418 155.192 134.806 152.493 134.308 149.994L132.836 142.602L135.919 144.725C138.137 146.252 140.404 147.828 141.939 150.039C143.475 152.251 144.145 155.27 142.911 157.663" fill="#E6E6E6"/>
<path d="M142.68 166.762C142.992 164.488 143.313 162.186 143.094 159.888C142.899 157.848 142.277 155.855 141.009 154.22C140.337 153.355 139.518 152.613 138.59 152.028C138.348 151.876 138.126 152.259 138.366 152.411C139.972 153.425 141.213 154.923 141.912 156.689C142.684 158.652 142.808 160.793 142.674 162.878C142.593 164.139 142.423 165.392 142.251 166.644C142.237 166.7 142.245 166.76 142.274 166.811C142.303 166.862 142.35 166.899 142.406 166.917C142.463 166.932 142.523 166.924 142.574 166.895C142.625 166.866 142.663 166.818 142.679 166.762L142.68 166.762Z" fill="#F2F2F2"/>
<path d="M131.504 129.003H2.50108V0H131.504V129.003Z" fill="white"/>
<path d="M131.504 129.003H2.50108V0H131.504V129.003ZM4.40707 127.097H129.598V1.90601H4.40707V127.097Z" fill="#E5E5E5"/>
<path d="M108.651 20.1826H52.7869V21.9228H108.651V20.1826Z" fill="#E5E5E5"/>
<path d="M108.651 24.707H52.7869V26.4472H108.651V24.707Z" fill="#E5E5E5"/>
<path d="M108.651 29.2314H52.7869V30.9716H108.651V29.2314Z" fill="#E5E5E5"/>
<path d="M108.651 59.0332H52.7869V60.7734H108.651V59.0332Z" fill="#E5E5E5"/>
<path d="M108.651 63.5581H52.7869V65.2983H108.651V63.5581Z" fill="#E5E5E5"/>
<path d="M108.651 68.0825H52.7869V69.8227H108.651V68.0825Z" fill="#E5E5E5"/>
<path d="M108.651 97.8843H52.7869V99.6245H108.651V97.8843Z" fill="#E5E5E5"/>
<path d="M108.651 102.409H52.7869V104.149H108.651V102.409Z" fill="#E5E5E5"/>
<path d="M108.651 106.933H52.7869V108.673H108.651V106.933Z" fill="#E5E5E5"/>
<path d="M30.4234 34.0477C29.469 33.5448 28.4729 33.1256 27.4461 32.7948L27.3152 31.3465L22.0054 30.7744L21.3306 32.6256L19.425 33.3407C19.3568 33.3665 19.2919 33.4003 19.2316 33.4414H19.2296C19.1232 33.5133 19.0327 33.6061 18.9634 33.7141C18.8941 33.8222 18.8476 33.9432 18.8267 34.0699C18.8064 34.1958 18.8112 34.3245 18.8409 34.4486L18.9416 34.8615C19.0866 34.9481 19.2357 35.0307 19.3847 35.1093L19.4794 35.1576C19.697 35.2704 19.9186 35.3772 20.1462 35.4759C20.1925 35.496 20.2429 35.5162 20.2892 35.5363C20.2932 35.5383 20.2952 35.5383 20.2992 35.5404C20.406 35.5847 20.5127 35.627 20.6215 35.6673C20.9788 35.8037 21.3433 35.9207 21.7133 36.0178C22.6576 36.2694 23.6307 36.3967 24.6079 36.3965C24.9645 36.3965 25.317 36.3803 25.6655 36.3461C26.4617 36.2726 27.2478 36.1139 28.0102 35.8727C28.0122 35.8727 28.0142 35.8707 28.0162 35.8707C28.4978 35.7173 28.9683 35.5308 29.4243 35.3127C29.4262 35.3107 29.4303 35.3107 29.4323 35.3087C29.535 35.2604 29.6338 35.208 29.7345 35.1576L29.7828 35.1334C29.8633 35.0912 29.944 35.0488 30.0245 35.0045C30.226 34.8937 30.4234 34.7769 30.6187 34.652C30.6731 34.6198 30.7255 34.5855 30.7799 34.5493C30.8564 34.4989 30.933 34.4466 31.0075 34.3922C30.8202 34.2713 30.6248 34.1565 30.4234 34.0477Z" fill="#3F3D56"/>
<path d="M20.4582 34.9397L20.1258 33.439H19.2576C19.2489 33.4391 19.2401 33.4398 19.2315 33.441H19.2294C18.9174 33.4674 18.6169 33.5712 18.3552 33.7431C18.1777 33.8565 18.0199 33.998 17.8879 34.1621C18.1457 34.3575 18.4136 34.5388 18.6896 34.712L18.7017 34.7181C18.7802 34.7664 18.8609 34.8148 18.9414 34.8611C19.0864 34.9477 19.2355 35.0303 19.3845 35.1088L19.4792 35.1572C19.6968 35.27 19.9184 35.3768 20.146 35.4755C20.1923 35.4956 20.2427 35.5157 20.289 35.5359C20.293 35.5379 20.295 35.5379 20.299 35.5399C20.4059 35.5843 20.5126 35.6265 20.6214 35.6668L20.4582 34.9397Z" fill="#3F3D56"/>
<path d="M24.4522 29.8583C26.5642 29.8583 28.2764 28.1461 28.2764 26.0341C28.2764 23.9221 26.5642 22.21 24.4522 22.21C22.3402 22.21 20.628 23.9221 20.628 26.0341C20.628 28.1461 22.3402 29.8583 24.4522 29.8583Z" fill="#FFB8B8"/>
<path d="M21.8843 24.1718C22.2802 24.6403 22.9501 24.7725 23.5681 24.8267C25.013 24.9065 26.462 24.7882 27.8747 24.475C27.9623 25.3235 27.7236 26.2384 28.2234 26.9363C28.4576 26.0913 28.5939 25.2222 28.6293 24.3461C28.6667 23.9701 28.6176 23.5907 28.4858 23.2366C28.4154 23.0592 28.2966 22.9051 28.143 22.7918C27.9893 22.6786 27.807 22.6106 27.6167 22.5958C27.9016 22.3797 28.2353 22.237 28.5884 22.1804L27.3741 21.5702L27.6859 21.2501L25.4876 21.1155L26.1243 20.711C25.166 20.5794 24.1965 20.5488 23.2318 20.6197C22.781 20.6199 22.3387 20.7429 21.9525 20.9753C21.5895 21.2349 21.3798 21.7508 21.6051 22.1319C21.323 22.1782 21.0574 22.2958 20.8334 22.4735C20.6095 22.6512 20.4346 22.8831 20.3254 23.1473C20.1872 23.5672 20.1539 24.0145 20.2282 24.4503C20.3111 25.1495 20.4735 25.8369 20.7125 26.4991L21.8843 24.1718Z" fill="#2F2E41"/>
<path d="M35.2055 21.8886C34.669 20.3472 33.8026 18.9414 32.667 17.7692C31.5313 16.597 30.1535 15.6867 28.6299 15.1016C27.1062 14.5166 25.4733 14.271 23.8449 14.3819C22.2165 14.4928 20.632 14.9576 19.2017 15.7438C17.7714 16.53 16.5299 17.6188 15.5636 18.9342C14.5974 20.2495 13.9297 21.7598 13.6071 23.3597C13.2845 24.9597 13.3148 26.6107 13.6958 28.1977C14.0769 29.7847 14.7995 31.2695 15.8134 32.5486C15.9141 32.6755 16.0189 32.8024 16.1257 32.9253C16.1337 32.9333 16.1397 32.9414 16.1478 32.9494C16.4104 33.252 16.6894 33.5398 16.9837 33.8116C17.0603 33.8821 17.1409 33.9546 17.2215 34.0231C17.3745 34.1601 17.5317 34.291 17.6949 34.4159C17.7593 34.4662 17.8217 34.5166 17.8882 34.565C18.146 34.7603 18.4139 34.9416 18.6899 35.1149L18.702 35.1209C18.7805 35.1693 18.8612 35.2176 18.9417 35.2639C19.0867 35.3505 19.2358 35.4331 19.3848 35.5117L19.4795 35.56C19.6971 35.6728 19.9187 35.7796 20.1463 35.8783C20.1926 35.8984 20.243 35.9186 20.2893 35.9387C20.2934 35.9408 20.2953 35.9407 20.2993 35.9428C20.4062 35.9871 20.5129 36.0294 20.6217 36.0697C20.979 36.2061 21.3434 36.3231 21.7134 36.4202C22.6577 36.6718 23.6308 36.7992 24.6081 36.7989C24.9646 36.7989 25.3171 36.7827 25.6656 36.7485C26.4619 36.675 27.2479 36.5163 28.0103 36.2751C28.0123 36.2751 28.0144 36.2731 28.0163 36.2731C28.4979 36.1197 28.9684 35.9332 29.4244 35.7151C29.4264 35.7131 29.4304 35.7131 29.4325 35.7111C29.5352 35.6628 29.6339 35.6104 29.7346 35.56L29.7829 35.5359C29.8635 35.4936 29.9441 35.4513 30.0247 35.4069C30.2261 35.2961 30.4235 35.1793 30.6189 35.0544C30.6732 35.0222 30.7257 34.988 30.7801 34.9517C30.8566 34.9013 30.9331 34.849 31.0077 34.7946C31.1063 34.7261 31.2051 34.6556 31.3017 34.5831C31.3319 34.5609 31.3642 34.5388 31.3944 34.5146C33.2816 33.0822 34.6668 31.089 35.3514 28.8208C36.0361 26.5527 35.985 24.126 35.2055 21.8886V21.8886ZM31.0238 34.0251C30.9573 34.0775 30.8888 34.1278 30.8203 34.1742C30.7538 34.2245 30.6874 34.2729 30.6189 34.3172C30.5604 34.3595 30.502 34.3998 30.4416 34.438L30.4235 34.4501C30.3792 34.4803 30.3349 34.5085 30.2905 34.5367C30.1233 34.6415 29.9541 34.7422 29.7829 34.8389L29.7285 34.8691C29.652 34.9114 29.5755 34.9517 29.499 34.992C29.4888 34.998 29.4767 35.0021 29.4667 35.0081L29.4546 35.0142C29.3579 35.0645 29.2592 35.1129 29.1605 35.1592C28.7796 35.3426 28.3874 35.5014 27.9861 35.6346C27.9337 35.6527 27.8814 35.6708 27.8291 35.6869C27.1074 35.9165 26.3632 36.0677 25.6092 36.1382C25.2789 36.1684 24.9445 36.1845 24.6081 36.1845C23.6838 36.1864 22.7633 36.0658 21.8706 35.8259C21.4125 35.7064 20.9635 35.5542 20.527 35.3707C20.5048 35.3606 20.4806 35.3526 20.4585 35.3425C20.4344 35.3324 20.4122 35.3244 20.39 35.3143C20.3658 35.3042 20.3437 35.2941 20.3195 35.2821C20.1302 35.1995 19.9428 35.1088 19.7596 35.0142L19.6709 34.9678C19.4473 34.851 19.2278 34.7261 19.0142 34.5931C18.9518 34.5549 18.8873 34.5146 18.8268 34.4723C18.8108 34.4622 18.7967 34.4521 18.7805 34.4421C18.6375 34.3474 18.4945 34.2487 18.3555 34.146C18.2609 34.0754 18.1662 34.005 18.0735 33.9324C17.9184 33.8156 17.7693 33.6907 17.6243 33.5618C17.5478 33.4973 17.4733 33.4268 17.4008 33.3604C17.1152 33.0966 16.8448 32.8169 16.591 32.5224C16.5064 32.4257 16.4238 32.329 16.3452 32.2283C16.3273 32.2084 16.3105 32.1875 16.2948 32.1659C14.9861 30.5143 14.1988 28.5104 14.0336 26.4096C13.8683 24.3089 14.3325 22.2065 15.3669 20.3706C16.4014 18.5348 17.9592 17.0486 19.8417 16.1017C21.7242 15.1548 23.8461 14.79 25.9367 15.0539C28.0274 15.3178 29.992 16.1984 31.5802 17.5834C33.1683 18.9685 34.3079 20.7951 34.8537 22.8305C35.3995 24.8658 35.3267 27.0176 34.6445 29.0114C33.9624 31.0052 32.7019 32.7506 31.0238 34.0251L31.0238 34.0251Z" fill="#3F3D56"/>
<path d="M35.2055 60.7397C34.669 59.1983 33.8026 57.7925 32.6669 56.6203C31.5312 55.4481 30.1535 54.5377 28.6299 53.9527C27.1062 53.3677 25.4732 53.1221 23.8449 53.233C22.2165 53.3439 20.632 53.8087 19.2017 54.5949C17.7714 55.3811 16.5299 56.4699 15.5636 57.7852C14.5974 59.1006 13.9297 60.6109 13.6071 62.2108C13.2845 63.8107 13.3148 65.4618 13.6958 67.0488C14.0769 68.6358 14.7995 70.1206 15.8134 71.3996C15.9141 71.5265 16.0188 71.6534 16.1256 71.7763C16.1336 71.7844 16.1396 71.7924 16.1477 71.8005C16.4103 72.103 16.6894 72.3908 16.9837 72.6626C17.0602 72.7331 17.1408 72.8056 17.2214 72.8741C17.3745 73.0111 17.5316 73.1421 17.6947 73.2669C18.0133 73.518 18.3455 73.7514 18.6898 73.9659L18.7019 73.972C18.9255 74.111 19.1531 74.2399 19.3848 74.3628L19.4794 74.4111C19.697 74.5239 19.9186 74.6307 20.1462 74.7294C20.1925 74.7495 20.2429 74.7696 20.2892 74.7898C20.2932 74.7918 20.2953 74.7918 20.2993 74.7938C20.7592 74.9851 21.2317 75.1446 21.7134 75.2712C22.6577 75.5229 23.6307 75.6502 24.608 75.6499C24.9645 75.6499 25.317 75.6338 25.6655 75.5995C26.4617 75.5261 27.2478 75.3674 28.0102 75.1262C28.0123 75.1262 28.0143 75.1242 28.0162 75.1242C28.4978 74.9707 28.9683 74.7843 29.4243 74.5662C29.4263 74.5642 29.4304 74.5642 29.4324 74.5622C29.5351 74.5138 29.6338 74.4614 29.7345 74.4111L29.7829 74.3869C29.8635 74.3446 29.944 74.3023 30.0246 74.258C30.226 74.1472 30.4234 74.0304 30.6188 73.9055C30.6732 73.8732 30.7256 73.839 30.7799 73.8027C30.9572 73.6859 31.1325 73.561 31.3016 73.4341C31.3319 73.412 31.3641 73.3898 31.3944 73.3656C33.2815 71.9332 34.6666 69.94 35.3513 67.6719C36.0359 65.4037 35.9849 62.9771 35.2055 60.7397V60.7397Z" fill="white"/>
<path d="M28.3113 69.054C29.2401 69.054 29.9931 68.301 29.9931 67.3722C29.9931 66.4434 29.2401 65.6904 28.3113 65.6904C27.3825 65.6904 26.6295 66.4434 26.6295 67.3722C26.6295 68.301 27.3825 69.054 28.3113 69.054Z" fill="#2F2E41"/>
<path d="M28.7796 65.7367C29.0707 65.7367 29.3568 65.8122 29.61 65.9559C29.8631 66.0996 30.0746 66.3066 30.2238 66.5565C30.373 66.8065 30.4548 67.0908 30.4612 67.3818C30.4676 67.6729 30.3983 67.9605 30.2602 68.2168C30.4059 68.0343 30.5121 67.8235 30.5719 67.5978C30.6317 67.3721 30.6439 67.1364 30.6075 66.9057C30.5712 66.675 30.4872 66.4545 30.361 66.258C30.2347 66.0616 30.0689 65.8936 29.8741 65.7648C29.6794 65.636 29.4599 65.5492 29.2297 65.5098C28.9996 65.4705 28.7637 65.4796 28.5372 65.5364C28.3107 65.5933 28.0986 65.6967 27.9143 65.8401C27.7299 65.9835 27.5775 66.1637 27.4667 66.3692C27.6239 66.1718 27.8236 66.0124 28.051 65.9029C28.2784 65.7934 28.5275 65.7366 28.7798 65.7367L28.7796 65.7367Z" fill="#2F2E41"/>
<path d="M25.1682 67.3686C27.8967 67.3686 30.1086 65.1567 30.1086 62.4282C30.1086 59.6997 27.8967 57.4878 25.1682 57.4878C22.4397 57.4878 20.2278 59.6997 20.2278 62.4282C20.2278 65.1567 22.4397 67.3686 25.1682 67.3686Z" fill="#2F2E41"/>
<path d="M21.2909 59.3629C22.1422 58.4055 23.3321 57.8163 24.6095 57.7197C25.887 57.623 27.152 58.0264 28.1376 58.8448C28.0974 58.8063 28.0571 58.7676 28.0154 58.7304C27.0394 57.8561 25.7562 57.4053 24.4479 57.4772C23.1396 57.549 21.9134 58.1377 21.0391 59.1136C20.1648 60.0896 19.714 61.3728 19.7859 62.6811C19.8578 63.9894 20.4464 65.2156 21.4224 66.0899C21.4318 66.0983 21.4412 66.1066 21.4506 66.115C21.4925 66.1522 21.5356 66.1875 21.5785 66.2231C20.6504 65.3401 20.1015 64.1311 20.0479 62.8511C19.9943 61.5712 20.44 60.3204 21.2911 59.3629L21.2909 59.3629Z" fill="#2F2E41"/>
<path d="M25.1266 67.3266C26.8839 67.3266 28.3085 65.9021 28.3085 64.1448C28.3085 62.3875 26.8839 60.9629 25.1266 60.9629C23.3694 60.9629 21.9448 62.3875 21.9448 64.1448C21.9448 65.9021 23.3694 67.3266 25.1266 67.3266Z" fill="#A0616A"/>
<path d="M30.8201 72.4348V73.5024C30.6247 73.6273 30.4273 73.7441 30.2259 73.8549C30.1453 73.8992 30.0648 73.9415 29.9842 73.9839L29.9358 74.008C29.8351 74.0584 29.7363 74.1108 29.6337 74.1591C29.6317 74.1611 29.6276 74.1611 29.6256 74.1631C29.1696 74.3813 28.6991 74.5677 28.2175 74.7211C28.2155 74.7211 28.2136 74.7231 28.2115 74.7231C27.4491 74.9643 26.663 75.123 25.8668 75.1965C25.5183 75.2307 25.1658 75.2469 24.8093 75.2469C23.832 75.2471 22.859 75.1198 21.9147 74.8682C21.433 74.7415 20.9605 74.582 20.5006 74.3908C20.4966 74.3888 20.4945 74.3887 20.4905 74.3867C20.4442 74.3666 20.3938 74.3464 20.3475 74.3263C20.1199 74.2276 19.8983 74.1208 19.6807 74.008L19.5861 73.9597C19.3544 73.8368 19.1268 73.7079 18.9032 73.5689L18.8911 73.5629C18.5468 73.3483 18.2146 73.115 17.896 72.8639C17.7329 72.739 17.5758 72.6081 17.4227 72.4711C17.3421 72.4026 17.2615 72.3301 17.185 72.2596C16.8907 71.9878 16.6116 71.7 16.349 71.3974C16.3838 71.1876 16.435 70.9808 16.5021 70.779L16.5041 70.777C16.5161 70.7426 16.5303 70.709 16.5464 70.6763C16.5575 70.6474 16.5703 70.6191 16.5847 70.5917C16.9452 69.9169 17.5979 69.7497 18.4077 69.7134C18.865 69.6933 19.3705 69.7155 19.9044 69.7094C20.1864 69.7074 20.4784 69.6973 20.7705 69.6711C22.6136 69.504 22.2793 68.4162 22.3618 67.83C22.4445 67.262 22.9561 67.7535 22.9903 67.7857L22.9923 67.7877C24.0353 68.2758 25.1893 68.4781 26.3362 68.3739C26.5336 68.3497 26.731 68.3356 26.9284 68.3296C27.4481 68.3235 27.3353 68.4726 27.1561 68.5955C27.0691 68.6527 26.9782 68.7039 26.8841 68.7486C26.8841 68.7486 26.8015 69.2522 26.7169 70.0055C26.6363 70.7266 28.0182 71.0651 28.1329 71.0912C28.1353 71.0928 28.1382 71.0936 28.141 71.0933C28.6456 70.9624 29.1769 70.9764 29.674 71.1336H29.676C29.96 71.238 30.2134 71.4117 30.4132 71.639C30.613 71.8662 30.7529 72.1398 30.8201 72.4348Z" fill="#0A1A47"/>
<path d="M20.5206 73.7301C20.5206 73.8791 20.5167 74.0222 20.5106 74.1571C20.5086 74.2377 20.5046 74.3162 20.5006 74.3908C20.4965 74.3888 20.4945 74.3888 20.4904 74.3868C20.4441 74.3666 20.3937 74.3465 20.3474 74.3263C20.1198 74.2276 19.8982 74.1209 19.6807 74.0081L19.586 73.9597C19.3543 73.8368 19.1267 73.7079 18.9032 73.5689C18.9092 73.4984 18.9193 73.4279 18.9293 73.3574C18.9514 73.2023 18.9696 73.0452 18.9817 72.8901C19.0609 71.8004 18.8634 70.7084 18.4076 69.7155V69.7135C18.3673 69.6329 18.3432 69.5886 18.3432 69.5886C18.3432 69.5886 18.9293 69.085 19.7652 69.5886C19.8186 69.6199 19.8658 69.6609 19.9043 69.7094C20.4079 70.3037 20.5448 72.3019 20.5206 73.7301Z" fill="#2F2E41"/>
<path d="M29.6679 73.4564C29.6599 73.682 29.6478 73.9176 29.6337 74.1574V74.1594C29.6318 74.1614 29.6276 74.1614 29.6257 74.1634C29.1697 74.3815 28.6992 74.568 28.2176 74.7214C28.2156 74.7214 28.2136 74.7234 28.2116 74.7234L28.1894 74.1574L28.1874 74.0828L28.0807 71.3272C28.0778 71.2648 28.0876 71.2025 28.1095 71.144C28.1314 71.0855 28.1649 71.0321 28.208 70.9869C28.2511 70.9417 28.3029 70.9058 28.3603 70.8812C28.4177 70.8565 28.4795 70.8438 28.542 70.8438H29.5632C29.6136 70.8438 29.6498 70.9465 29.674 71.1318V71.1338C29.7236 71.9073 29.7215 72.6832 29.6679 73.4564Z" fill="#2F2E41"/>
<path d="M22.405 60.1675V63.3501H23.1419L24.0796 62.3454L23.9541 63.3501H27.2113L27.0098 62.3454L27.4127 63.3501H27.932V60.1675H22.405Z" fill="#2F2E41"/>
<path d="M21.9029 63.9351C22.0416 63.9351 22.1541 63.729 22.1541 63.4746C22.1541 63.2203 22.0416 63.0142 21.9029 63.0142C21.7641 63.0142 21.6517 63.2203 21.6517 63.4746C21.6517 63.729 21.7641 63.9351 21.9029 63.9351Z" fill="#A0616A"/>
<path d="M28.3502 63.9351C28.4889 63.9351 28.6014 63.729 28.6014 63.4746C28.6014 63.2203 28.4889 63.0142 28.3502 63.0142C28.2115 63.0142 28.099 63.2203 28.099 63.4746C28.099 63.729 28.2115 63.9351 28.3502 63.9351Z" fill="#A0616A"/>
<path d="M31.5029 73.0312C31.3337 73.1581 31.1584 73.283 30.9812 73.3998C30.9268 73.4361 30.8745 73.4703 30.8201 73.5025C30.6246 73.6274 30.4272 73.7443 30.2258 73.8551C30.1452 73.8994 30.0647 73.9417 29.9841 73.984V71.7642C29.9841 71.7642 30.3063 72.022 30.8201 72.4511C30.8845 72.5054 30.951 72.5618 31.0215 72.6223C31.1705 72.7472 31.3317 72.8841 31.5029 73.0312Z" fill="#0A1A47"/>
<path d="M35.2055 60.7397C34.669 59.1983 33.8026 57.7925 32.6669 56.6203C31.5312 55.4481 30.1535 54.5377 28.6299 53.9527C27.1062 53.3677 25.4732 53.1221 23.8449 53.233C22.2165 53.3439 20.632 53.8087 19.2017 54.5949C17.7714 55.3811 16.5299 56.4699 15.5636 57.7852C14.5974 59.1006 13.9297 60.6109 13.6071 62.2108C13.2845 63.8107 13.3148 65.4618 13.6958 67.0488C14.0769 68.6358 14.7995 70.1206 15.8134 71.3996C15.9141 71.5265 16.0188 71.6534 16.1256 71.7763C16.1336 71.7844 16.1396 71.7924 16.1477 71.8005C16.4103 72.103 16.6894 72.3908 16.9837 72.6626C17.0602 72.7331 17.1408 72.8056 17.2214 72.8741C17.3745 73.0111 17.5316 73.1421 17.6947 73.2669C18.0133 73.518 18.3455 73.7514 18.6898 73.9659L18.7019 73.972C18.9255 74.111 19.1531 74.2399 19.3848 74.3628L19.4794 74.4111C19.697 74.5239 19.9186 74.6307 20.1462 74.7294C20.1925 74.7495 20.2429 74.7696 20.2892 74.7898C20.2932 74.7918 20.2953 74.7918 20.2993 74.7938C20.7592 74.9851 21.2317 75.1446 21.7134 75.2712C22.6577 75.5229 23.6307 75.6502 24.608 75.6499C24.9645 75.6499 25.317 75.6338 25.6655 75.5995C26.4617 75.5261 27.2478 75.3674 28.0102 75.1262C28.0123 75.1262 28.0143 75.1242 28.0162 75.1242C28.4978 74.9707 28.9683 74.7843 29.4243 74.5662C29.4263 74.5642 29.4304 74.5642 29.4324 74.5622C29.5351 74.5138 29.6338 74.4614 29.7345 74.4111L29.7829 74.3869C29.8635 74.3446 29.944 74.3023 30.0246 74.258C30.226 74.1472 30.4234 74.0304 30.6188 73.9055C30.6732 73.8732 30.7256 73.839 30.7799 73.8027C30.9572 73.6859 31.1325 73.561 31.3016 73.4341C31.3319 73.412 31.3641 73.3898 31.3944 73.3656C33.2815 71.9332 34.6666 69.94 35.3513 67.6719C36.0359 65.4037 35.9849 62.9771 35.2055 60.7397V60.7397ZM31.0237 72.8762C30.9572 72.9285 30.8887 72.9789 30.8203 73.0252C30.7538 73.0756 30.6873 73.1239 30.6188 73.1682C30.5604 73.2105 30.502 73.2508 30.4415 73.2891C30.3912 73.3233 30.3408 73.3556 30.2904 73.3878C30.1233 73.4925 29.9541 73.5933 29.7829 73.6899L29.7284 73.7202C29.6519 73.7625 29.5754 73.8027 29.4988 73.843C29.4887 73.8491 29.4766 73.8531 29.4666 73.8591L29.4545 73.8652C29.3578 73.9155 29.2592 73.9639 29.1604 74.0102C28.7795 74.1937 28.3873 74.3524 27.986 74.4856C27.9337 74.5037 27.8813 74.5219 27.829 74.538C27.1073 74.7675 26.3631 74.9188 25.6091 74.9892C25.2788 75.0194 24.9443 75.0355 24.608 75.0355C23.6836 75.0374 22.7631 74.9169 21.8705 74.677C21.4124 74.5574 20.9634 74.4053 20.5269 74.2217C20.4806 74.2036 20.4343 74.1835 20.3899 74.1653C20.3658 74.1553 20.3436 74.1452 20.3194 74.1331C20.1301 74.0505 19.9428 73.9599 19.7595 73.8652L19.6708 73.8189C19.4473 73.702 19.2276 73.5771 19.0141 73.4442C18.9356 73.3958 18.857 73.3455 18.7805 73.2931C18.5388 73.134 18.3031 72.9628 18.0734 72.7835C17.9183 72.6666 17.7693 72.5417 17.6242 72.4128C17.5477 72.3484 17.4731 72.2779 17.4007 72.2114C17.1151 71.9477 16.8447 71.6679 16.5909 71.3734C16.5063 71.2768 16.4237 71.1801 16.3451 71.0793C16.3272 71.0594 16.3104 71.0386 16.2947 71.0169C14.986 69.3654 14.1987 67.3614 14.0335 65.2607C13.8682 63.1599 14.3324 61.0576 15.3668 59.2217C16.4013 57.3858 17.9591 55.8997 19.8416 54.9527C21.7241 54.0058 23.846 53.641 25.9366 53.905C28.0273 54.1689 29.9919 55.0495 31.5801 56.4345C33.1682 57.8195 34.3078 59.6462 34.8536 61.6815C35.3994 63.7169 35.3265 65.8686 34.6444 67.8624C33.9623 69.8562 32.7018 71.6017 31.0237 72.8761V72.8762Z" fill="#22D389"/>
<path d="M24.6715 108.323C27.0997 108.323 29.0682 106.354 29.0682 103.926C29.0682 101.498 27.0997 99.5293 24.6715 99.5293C22.2434 99.5293 20.2749 101.498 20.2749 103.926C20.2749 106.354 22.2434 108.323 24.6715 108.323Z" fill="#2F2E41"/>
<path d="M21.2394 101.555C21.9499 100.845 22.0939 99.8369 21.561 99.3041C21.0281 98.7712 20.0202 98.9152 19.3097 99.6257C18.5993 100.336 18.4553 101.344 18.9881 101.877C19.521 102.41 20.5289 102.266 21.2394 101.555Z" fill="#2F2E41"/>
<path d="M29.2539 100.159C29.5499 99.4664 29.0408 98.5847 28.1168 98.19C27.1928 97.7953 26.2038 98.0371 25.9078 98.7301C25.6118 99.4231 26.1208 100.305 27.0448 100.7C27.9688 101.094 28.9579 100.852 29.2539 100.159Z" fill="#2F2E41"/>
<path d="M29.9306 112.454L29.4126 111.639C29.1928 111.148 28.7873 110.764 28.285 110.571C27.7828 110.379 27.2246 110.393 26.7328 110.611C26.241 110.829 25.8556 111.233 25.6611 111.735C25.4666 112.236 25.4788 112.794 25.695 113.287L25.8423 113.815L26.01 114.414C26.6886 114.329 27.3582 114.183 28.0109 113.978C28.0128 113.977 28.0146 113.977 28.016 113.975C28.4984 113.822 28.9693 113.636 29.4253 113.417C29.4278 113.414 29.4303 113.414 29.4329 113.411C29.5344 113.363 29.6335 113.312 29.735 113.262C29.7516 113.254 29.7677 113.246 29.7833 113.236C29.8645 113.196 29.9458 113.152 30.0246 113.109C30.1058 113.066 30.1845 113.02 30.2606 112.972L29.9306 112.454Z" fill="#CACACA"/>
<path d="M24.8107 108.707C26.8715 108.707 28.5421 107.036 28.5421 104.976C28.5421 102.915 26.8715 101.244 24.8107 101.244C22.7499 101.244 21.0794 102.915 21.0794 104.976C21.0794 107.036 22.7499 108.707 24.8107 108.707Z" fill="#FFB6B6"/>
<path d="M30.1997 112.294C29.7881 111.61 29.2772 110.99 28.6837 110.456C28.2772 110.093 27.751 109.892 27.2059 109.892H21.9495C21.6467 109.892 21.347 109.954 21.069 110.074C20.791 110.195 20.5407 110.371 20.3334 110.591C20.1261 110.812 19.9663 111.073 19.8639 111.358C19.7615 111.643 19.7186 111.946 19.7378 112.249C19.7493 112.419 19.78 112.588 19.8293 112.751C19.8668 112.87 19.9135 112.985 19.969 113.097L20.228 113.615C20.2483 113.622 20.2686 113.632 20.2888 113.64C20.2939 113.643 20.2965 113.643 20.299 113.645C20.4056 113.688 20.5124 113.731 20.6215 113.772C20.9788 113.909 21.3433 114.026 21.7134 114.122C22.3092 114.282 22.9173 114.392 23.5315 114.45C23.8895 114.483 24.2476 114.501 24.6082 114.501C24.9662 114.501 25.3166 114.483 25.667 114.45C25.7813 114.44 25.8955 114.427 26.0098 114.415C26.6885 114.329 27.3581 114.183 28.0108 113.978C28.0127 113.978 28.0145 113.977 28.0158 113.975C28.4982 113.823 28.9692 113.636 29.4252 113.417C29.4277 113.414 29.4302 113.414 29.4328 113.412C29.5343 113.363 29.6334 113.312 29.7349 113.262C29.7515 113.254 29.7676 113.246 29.7832 113.236C29.8644 113.196 29.9457 113.152 30.0244 113.109C30.1056 113.066 30.1843 113.02 30.2605 112.972C30.3418 112.929 30.418 112.881 30.4967 112.833C30.4003 112.642 30.3012 112.464 30.1997 112.294Z" fill="#CACACA"/>
<path d="M22.9015 110.573C22.415 110.345 21.8583 110.319 21.353 110.501C20.8477 110.683 20.4349 111.057 20.2049 111.543L19.7376 112.249L19.5141 112.586L19.1739 113.099C19.245 113.137 19.3135 113.175 19.3847 113.214L19.4785 113.262C19.697 113.374 19.9178 113.48 20.1465 113.579C20.1718 113.592 20.1998 113.602 20.2277 113.615C20.248 113.622 20.2683 113.633 20.2886 113.64C20.2936 113.643 20.2963 113.643 20.2987 113.645C20.4053 113.688 20.5121 113.732 20.6212 113.772C20.9785 113.909 21.3431 114.026 21.7132 114.123C22.3089 114.283 22.9171 114.392 23.5312 114.45L23.709 113.848L23.8817 113.274C24.1093 112.786 24.134 112.227 23.9502 111.721C23.7664 111.214 23.3893 110.802 22.9015 110.573Z" fill="#CACACA"/>
<path d="M20.8899 102.628C21.7426 103.216 22.7546 103.529 23.7902 103.525C23.4208 103.781 23.0003 103.954 22.5576 104.032C23.9344 104.327 25.3574 104.335 26.7375 104.055C27.0443 104.006 27.3403 103.905 27.6126 103.755C27.7482 103.679 27.8664 103.576 27.9595 103.451C28.0525 103.327 28.1184 103.184 28.1527 103.033C28.2444 102.509 27.8361 102.033 27.4119 101.712C26.7624 101.228 26.0134 100.895 25.2193 100.736C24.4252 100.578 23.6057 100.597 22.8201 100.794C22.2967 100.9 21.8204 101.169 21.4602 101.563C21.2859 101.763 21.1807 102.015 21.1601 102.28C21.1395 102.544 21.2046 102.809 21.3458 103.034L20.8899 102.628Z" fill="#2F2E41"/>
<path d="M35.2068 99.5905C34.6703 98.0489 33.8041 96.6429 32.6684 95.4706C31.5327 94.2982 30.1549 93.3877 28.6312 92.8026C27.1074 92.2174 25.4744 91.9717 23.8459 92.0826C22.2174 92.1934 20.6328 92.6582 19.2024 93.4445C17.772 94.2307 16.5304 95.3196 15.564 96.6351C14.5977 97.9505 13.93 99.461 13.6075 101.061C13.2849 102.661 13.3153 104.312 13.6965 105.899C14.0777 107.486 14.8005 108.971 15.8145 110.25C15.9135 110.377 16.0202 110.504 16.1269 110.626C16.133 110.635 16.1398 110.644 16.1472 110.652C16.4102 110.954 16.6899 111.241 16.9851 111.512C17.0612 111.583 17.14 111.657 17.2213 111.726C17.3735 111.863 17.531 111.992 17.696 112.117C17.7595 112.167 17.823 112.218 17.8891 112.266C18.1455 112.462 18.4147 112.642 18.6889 112.818C18.6936 112.818 18.6981 112.819 18.7016 112.823C18.7803 112.871 18.8616 112.919 18.9429 112.965C19.019 113.01 19.0977 113.056 19.174 113.099C19.245 113.137 19.3136 113.176 19.3847 113.214L19.4786 113.262C19.6971 113.374 19.9179 113.48 20.1465 113.579C20.1718 113.592 20.1998 113.602 20.2277 113.615C20.2481 113.622 20.2684 113.633 20.2886 113.64C20.2937 113.643 20.2963 113.643 20.2988 113.645C20.4054 113.688 20.5122 113.732 20.6213 113.772C20.9786 113.909 21.3431 114.026 21.7132 114.123C22.309 114.283 22.9171 114.392 23.5312 114.45C23.8893 114.483 24.2474 114.501 24.6079 114.501C24.966 114.501 25.3164 114.483 25.6668 114.45C25.7811 114.44 25.8953 114.427 26.0096 114.415C26.6883 114.329 27.3579 114.183 28.0105 113.978C28.0125 113.978 28.0143 113.977 28.0156 113.975C28.498 113.823 28.969 113.636 29.425 113.417C29.4275 113.414 29.4299 113.414 29.4325 113.412C29.5341 113.363 29.6331 113.313 29.7347 113.262C29.7513 113.254 29.7674 113.246 29.7829 113.236C29.8641 113.196 29.9455 113.153 30.0242 113.11C30.1054 113.066 30.1841 113.021 30.2603 112.972C30.3416 112.929 30.4177 112.881 30.4965 112.833C30.5371 112.807 30.5778 112.782 30.6184 112.757C30.6743 112.724 30.725 112.691 30.7809 112.652C30.857 112.604 30.9333 112.551 31.0068 112.498C31.1059 112.429 31.2049 112.358 31.3014 112.284C31.3339 112.263 31.3653 112.24 31.3954 112.216C33.2811 110.782 34.6652 108.789 35.3498 106.522C36.0343 104.254 35.9843 101.828 35.2068 99.5905L35.2068 99.5905ZM31.0247 111.726C30.9586 111.779 30.89 111.83 30.8216 111.875C30.7529 111.926 30.6869 111.974 30.6184 112.02C30.56 112.061 30.5016 112.101 30.4407 112.14C30.4352 112.144 30.4292 112.149 30.4228 112.152C30.3797 112.183 30.3339 112.211 30.2908 112.239C30.2603 112.256 30.2299 112.277 30.1994 112.294C30.1105 112.35 30.0216 112.404 29.9302 112.454C29.882 112.485 29.8312 112.513 29.7829 112.541C29.7652 112.551 29.7474 112.561 29.7296 112.571C29.6509 112.614 29.5748 112.652 29.4985 112.693C29.4885 112.701 29.4757 112.703 29.4681 112.711C29.4634 112.711 29.4589 112.713 29.4554 112.716C29.3589 112.767 29.2598 112.815 29.1609 112.861C28.7796 113.044 28.3869 113.203 27.9851 113.336C27.9344 113.353 27.8811 113.374 27.8303 113.389C27.1827 113.594 26.5169 113.737 25.842 113.815C25.7659 113.826 25.6871 113.833 25.6084 113.841C25.2784 113.871 24.9457 113.887 24.608 113.887C24.3083 113.887 24.0061 113.874 23.7091 113.848C23.088 113.797 22.4727 113.69 21.8707 113.529C21.4124 113.409 20.9635 113.256 20.5274 113.071C20.5045 113.061 20.4817 113.054 20.4589 113.044C20.4334 113.033 20.4131 113.026 20.3903 113.016C20.3649 113.005 20.3445 112.995 20.3191 112.983C20.1541 112.911 19.9891 112.833 19.8291 112.752C19.8062 112.739 19.7834 112.729 19.7606 112.716L19.6717 112.67C19.6183 112.642 19.565 112.614 19.5142 112.586C19.3441 112.495 19.1765 112.396 19.014 112.294C18.953 112.256 18.8871 112.216 18.8261 112.175L18.7803 112.145C18.6381 112.048 18.496 111.952 18.3563 111.848C18.2623 111.776 18.1658 111.708 18.0745 111.634C17.9196 111.517 17.7697 111.393 17.625 111.264C17.5488 111.2 17.4726 111.129 17.4016 111.063C17.1156 110.799 16.8452 110.52 16.5916 110.225C16.5078 110.128 16.424 110.032 16.3452 109.93C16.3275 109.91 16.3122 109.89 16.2944 109.867C14.9853 108.215 14.1978 106.211 14.0324 104.11C13.867 102.009 14.3311 99.9064 15.3655 98.0702C16.4 96.234 17.9579 94.7476 19.8406 93.8004C21.7233 92.8533 23.8455 92.4883 25.9364 92.7522C28.0274 93.016 29.9924 93.8967 31.5808 95.2818C33.1692 96.667 34.309 98.4938 34.8549 100.529C35.4008 102.565 35.328 104.717 34.6459 106.711C33.9637 108.705 32.7031 110.451 31.0247 111.726H31.0247Z" fill="#3F3D56"/>
<path d="M43.3817 44.7645C39.4743 41.4674 34.6928 39.377 29.6191 38.7479C24.5454 38.1187 19.3981 38.9778 14.8038 41.2206C10.2094 43.4634 6.36593 46.9933 3.74112 51.3807C1.1163 55.768 -0.17671 60.8237 0.0194186 65.9326C0.215547 71.0414 1.89236 75.9831 4.84582 80.1563C7.79927 84.3296 11.902 87.5544 16.6548 89.4384C21.4077 91.3224 26.6056 91.7843 31.6162 90.768C36.6267 89.7517 41.2339 87.3009 44.877 83.7139L77.2273 111.011C77.7198 111.425 78.3563 111.627 78.9973 111.572C79.6384 111.517 80.2316 111.211 80.647 110.72C81.0623 110.228 81.266 109.592 81.2132 108.951C81.1604 108.31 80.8555 107.716 80.3654 107.299L80.3618 107.296L48.0116 79.9991C51.7697 74.6054 53.3781 68.0027 52.5216 61.485C51.6652 54.9672 48.4056 49.0042 43.3817 44.7645ZM41.2962 77.3705C38.776 80.3573 35.4267 82.5297 31.6718 83.6129C27.917 84.6962 23.9252 84.6417 20.2013 83.4563C16.4774 82.2709 13.1887 80.0079 10.751 76.9534C8.31325 73.8989 6.83604 70.1901 6.50614 66.296C6.17624 62.402 7.00846 58.4976 8.89758 55.0765C10.7867 51.6554 13.6478 48.8714 17.1192 47.0764C20.5906 45.2814 24.5163 44.5562 28.3999 44.9923C32.2835 45.4284 35.9505 47.0064 38.9373 49.5266C42.9425 52.9061 45.4411 57.7383 45.8834 62.96C46.3258 68.1818 44.6758 73.3654 41.2962 77.3705Z" fill="#22D389"/>
<path opacity="0.3" d="M13.4524 79.7293C9.66181 76.5305 7.2128 72.0232 6.59164 67.1023C5.97049 62.1814 7.22264 57.2069 10.0994 53.1665C9.72164 53.547 9.35641 53.9455 9.00375 54.3619C7.33038 56.3451 6.064 58.6384 5.27693 61.111C4.48985 63.5835 4.19749 66.1869 4.41654 68.7724C4.63559 71.358 5.36175 73.8751 6.55357 76.18C7.74539 78.4849 9.37952 80.5325 11.3627 82.2059C13.3458 83.8792 15.6391 85.1456 18.1117 85.9327C20.5843 86.7198 23.1877 87.0121 25.7732 86.7931C28.3588 86.574 30.8758 85.8479 33.1808 84.6561C35.4857 83.4642 37.5333 81.8301 39.2066 79.847C39.5585 79.43 39.8898 79.0029 40.2007 78.5658C36.7018 82.0813 32.0089 84.1525 27.0536 84.368C22.0984 84.5836 17.2433 82.9277 13.4524 79.7293Z" fill="black"/>
<path d="M108.6 112.031C108.853 111.723 109.034 111.363 109.133 110.976C109.231 110.59 109.244 110.186 109.17 109.794C109.095 109.403 108.936 109.032 108.703 108.708C108.47 108.385 108.169 108.116 107.821 107.922L101.924 83.7861L97.6223 85.1593L103.99 109.13C103.701 109.737 103.646 110.428 103.833 111.072C104.02 111.717 104.438 112.271 105.006 112.628C105.574 112.986 106.254 113.123 106.916 113.013C107.579 112.903 108.178 112.553 108.6 112.031H108.6Z" fill="#FFB6B6"/>
<path d="M105.552 96.5931L102.409 99.305L98.0106 103.096L96.068 93.1577L95.8649 92.1242L95.7049 91.304L100.161 83.5415L103.876 83.7545L104.13 83.7698L104.135 83.8259L104.194 84.3465L104.955 91.1971L104.973 91.3624L105.552 96.5931Z" fill="#3F3D56"/>
<path d="M85.0048 164.055L81.892 164.055L80.4108 152.047L85.0056 152.048L85.0048 164.055Z" fill="#FFB6B6"/>
<path d="M85.7987 167.073L75.7608 167.073V166.946C75.7609 165.909 76.1725 164.916 76.9052 164.183C77.6379 163.45 78.6316 163.039 79.6678 163.039H79.6681L85.7989 163.039L85.7987 167.073Z" fill="#2F2E41"/>
<path d="M117.507 164.309L114.395 164.309L112.913 152.301L117.508 152.302L117.507 164.309Z" fill="#FFB6B6"/>
<path d="M118.301 167.327L108.263 167.326V167.199C108.263 166.163 108.675 165.17 109.408 164.437C110.14 163.704 111.134 163.293 112.17 163.292H112.171L118.301 163.293L118.301 167.327Z" fill="#2F2E41"/>
<path d="M119.996 159.529L111.616 160.799L99.425 119.541L86.4773 161.053L77.082 159.783L89.2705 111.537V107.728L90.921 102.015L90.7483 100.468L89.5472 89.6536L89.0267 84.9635L88.993 84.6606C88.9647 84.4063 89.032 84.1506 89.1819 83.9433C89.3317 83.736 89.5534 83.5919 89.8037 83.539L93.7142 82.7163H100.105L103.876 83.7549L104.135 83.826L104.252 83.859L104.194 84.3465L103.31 91.7561L103.262 92.1624L102.409 99.3053L102.221 100.872C109.585 106.204 109.838 111.537 109.838 111.537L119.996 159.529Z" fill="#2F2E41"/>
<path d="M96.1375 79.5037C99.5819 79.5037 102.374 76.7114 102.374 73.267C102.374 69.8225 99.5819 67.0303 96.1375 67.0303C92.6931 67.0303 89.9008 69.8225 89.9008 73.267C89.9008 76.7114 92.6931 79.5037 96.1375 79.5037Z" fill="#FFB6B6"/>
<path d="M102.688 99.4388L90.3506 101.052L90.5811 102.815L102.918 101.201L102.688 99.4388Z" fill="#3F3D56"/>
<path d="M73.8016 101.584C73.9196 101.66 74.0314 101.745 74.1359 101.839L86.3387 98.7285L87.1711 95.7847L91.7782 96.4603L90.8109 101.815C90.7328 102.248 90.5164 102.643 90.1943 102.942C89.8722 103.242 89.4618 103.428 89.0246 103.474L74.7765 104.975C74.5442 105.464 74.1687 105.87 73.6997 106.141C73.2307 106.411 72.6906 106.532 72.1511 106.488C71.6116 106.444 71.0984 106.236 70.6797 105.893C70.2609 105.55 69.9566 105.088 69.807 104.568C69.6575 104.047 69.6698 103.494 69.8425 102.981C70.0151 102.468 70.3399 102.02 70.7735 101.696C71.2072 101.372 71.7292 101.188 72.2701 101.167C72.811 101.147 73.3452 101.293 73.8016 101.584Z" fill="#FFB6B6"/>
<path d="M92.5715 85.1285L90.4131 83.478C89.8296 83.2566 89.0299 83.8855 88.8896 84.4937L85.8425 96.9361L92.1906 101.507L93.0794 100.11L92.5715 85.1285Z" fill="#3F3D56"/>
<g opacity="0.2">
<path opacity="0.2" d="M104.955 91.1974C104.417 91.4113 103.867 91.5977 103.31 91.7561C103.132 91.8094 102.949 91.8602 102.769 91.9084C101.581 92.2381 100.359 92.4357 99.1277 92.4975C98.5975 92.52 98.0664 92.5055 97.5382 92.4544C96.9712 92.3979 96.4109 92.2873 95.8649 92.1243C95.847 92.1192 95.8267 92.1141 95.809 92.109C94.6736 91.7866 93.6326 91.1952 92.7745 90.3849C92.5828 90.1982 92.4038 89.9988 92.2387 89.7881C91.7646 89.2074 91.4167 88.5342 91.2173 87.8115C91.018 87.0888 90.9715 86.3324 91.0808 85.5907C91.1021 85.4563 91.1309 85.3232 91.1672 85.1921C91.2629 84.8347 91.3895 84.4864 91.5455 84.151C91.6141 83.9935 91.6903 83.8387 91.7715 83.6863L94.6409 82.7163H100.105L103.876 83.7549L104.13 83.7701L104.135 83.826L104.252 83.859L104.194 84.3465L104.955 91.1974Z" fill="black"/>
</g>
<path d="M91.3583 68.1038C90.1919 67.9608 88.9119 68.0619 88.0029 68.8065C87.0938 69.5511 86.8004 71.0989 87.6611 71.8989C88.4231 72.6071 89.6146 72.4405 90.6352 72.6419C91.5145 72.839 92.3022 73.3253 92.8723 74.0231C93.4424 74.7209 93.7619 75.5897 93.7798 76.4906C93.7646 79.0741 91.2852 81.0305 90.8398 83.5754C90.5359 85.3122 91.2684 87.14 92.5348 88.3669C93.8012 89.5937 95.5421 90.2567 97.2961 90.4363C99.0501 90.6159 100.824 90.3416 102.528 89.891C104.24 89.4384 105.925 88.7964 107.362 87.761C108.798 86.7257 109.975 85.2661 110.437 83.5566C110.898 81.8471 110.567 79.8871 109.378 78.5746C108.018 77.0716 105.754 76.5547 104.577 74.9039C103.257 73.0534 103.745 70.418 102.677 68.4117C101.964 67.0722 100.614 66.1586 99.1753 65.6773C97.7362 65.196 96.1995 65.101 94.6828 65.0544C93.8856 65.0299 93.064 65.0217 92.3212 65.3124C91.5784 65.603 90.9255 66.2654 90.887 67.0621C90.8485 67.8587 91.3583 68.1038 91.3583 68.1038Z" fill="#2F2E41"/>
<path d="M149.746 167.429H53.0002C52.9328 167.429 52.8682 167.402 52.8206 167.355C52.773 167.307 52.7462 167.243 52.7462 167.175C52.7462 167.108 52.773 167.043 52.8206 166.996C52.8682 166.948 52.9328 166.921 53.0002 166.921H149.746C149.813 166.921 149.878 166.948 149.926 166.996C149.973 167.043 150 167.108 150 167.175C150 167.243 149.973 167.307 149.926 167.355C149.878 167.402 149.813 167.429 149.746 167.429Z" fill="#CACACA"/>
</svg>
