<svg width="373" height="293" viewBox="0 0 373 293" fill="none" xmlns="http://www.w3.org/2000/svg">
<path d="M17.9595 251.364H16.2209V259.909H16.1129L10.1925 251.364H8.56747V263H10.3232V254.466H10.4311L16.3459 263H17.9595V251.364ZM24.0604 263.176C26.5206 263.176 28.1286 261.375 28.1286 258.676C28.1286 255.96 26.5206 254.159 24.0604 254.159C21.6001 254.159 19.9922 255.96 19.9922 258.676C19.9922 261.375 21.6001 263.176 24.0604 263.176ZM24.0661 261.75C22.4581 261.75 21.7081 260.347 21.7081 258.67C21.7081 257 22.4581 255.58 24.0661 255.58C25.6626 255.58 26.4126 257 26.4126 258.67C26.4126 260.347 25.6626 261.75 24.0661 261.75ZM37.5263 263.17C39.1172 263.17 39.7422 262.199 40.049 261.642H40.1911V263H41.8501V251.364H40.1513V255.688H40.049C39.7422 255.148 39.1626 254.159 37.5376 254.159C35.4297 254.159 33.8786 255.824 33.8786 258.653C33.8786 261.477 35.407 263.17 37.5263 263.17ZM37.9013 261.722C36.3842 261.722 35.5945 260.386 35.5945 258.636C35.5945 256.903 36.3672 255.602 37.9013 255.602C39.3842 255.602 40.1797 256.812 40.1797 258.636C40.1797 260.472 39.3672 261.722 37.9013 261.722ZM44.2749 263H45.9737V257.67C45.9737 256.528 46.8544 255.705 48.0589 255.705C48.4112 255.705 48.8089 255.767 48.9453 255.807V254.182C48.7749 254.159 48.4396 254.142 48.2237 254.142C47.201 254.142 46.326 254.722 46.0078 255.659H45.9169V254.273H44.2749V263ZM50.4155 263H52.1143V254.273H50.4155V263ZM51.2734 252.926C51.8587 252.926 52.3473 252.472 52.3473 251.915C52.3473 251.358 51.8587 250.898 51.2734 250.898C50.6825 250.898 50.1996 251.358 50.1996 251.915C50.1996 252.472 50.6825 252.926 51.2734 252.926ZM61.8658 254.273H60.0419L57.8374 260.989H57.7464L55.5362 254.273H53.7124L56.8828 263H58.701L61.8658 254.273ZM66.9112 263.176C68.8146 263.176 70.1612 262.239 70.5476 260.818L68.9396 260.528C68.6328 261.352 67.8942 261.773 66.9283 261.773C65.4737 261.773 64.4964 260.83 64.451 259.148H70.6555V258.545C70.6555 255.392 68.7692 254.159 66.7919 254.159C64.3601 254.159 62.7578 256.011 62.7578 258.693C62.7578 261.403 64.3374 263.176 66.9112 263.176ZM64.4567 257.875C64.5249 256.636 65.4226 255.562 66.8033 255.562C68.1214 255.562 68.9851 256.54 68.9908 257.875H64.4567ZM72.5405 263H74.2393V257.67C74.2393 256.528 75.12 255.705 76.3246 255.705C76.6768 255.705 77.0746 255.767 77.2109 255.807V254.182C77.0405 254.159 76.7053 254.142 76.4893 254.142C75.4666 254.142 74.5916 254.722 74.2734 255.659H74.1825V254.273H72.5405V263ZM82.9155 263H84.6143V257.67C84.6143 256.528 85.495 255.705 86.6996 255.705C87.0518 255.705 87.4496 255.767 87.5859 255.807V254.182C87.4155 254.159 87.0803 254.142 86.8643 254.142C85.8416 254.142 84.9666 254.722 84.6484 255.659H84.5575V254.273H82.9155V263ZM92.505 263.176C94.4084 263.176 95.755 262.239 96.1413 260.818L94.5334 260.528C94.2266 261.352 93.4879 261.773 92.522 261.773C91.0675 261.773 90.0902 260.83 90.0447 259.148H96.2493V258.545C96.2493 255.392 94.3629 254.159 92.3857 254.159C89.9538 254.159 88.3516 256.011 88.3516 258.693C88.3516 261.403 89.9311 263.176 92.505 263.176ZM90.0504 257.875C90.1186 256.636 91.0163 255.562 92.397 255.562C93.7152 255.562 94.5788 256.54 94.5845 257.875H90.0504ZM101.81 263.176C103.873 263.176 105.208 261.938 105.396 260.239H103.742C103.526 261.182 102.793 261.739 101.822 261.739C100.384 261.739 99.4581 260.54 99.4581 258.636C99.4581 256.767 100.401 255.591 101.822 255.591C102.901 255.591 103.56 256.273 103.742 257.091H105.396C105.214 255.33 103.776 254.159 101.793 254.159C99.3331 254.159 97.7422 256.011 97.7422 258.676C97.7422 261.307 99.2763 263.176 101.81 263.176ZM110.888 263.176C113.349 263.176 114.957 261.375 114.957 258.676C114.957 255.96 113.349 254.159 110.888 254.159C108.428 254.159 106.82 255.96 106.82 258.676C106.82 261.375 108.428 263.176 110.888 263.176ZM110.894 261.75C109.286 261.75 108.536 260.347 108.536 258.67C108.536 257 109.286 255.58 110.894 255.58C112.491 255.58 113.241 257 113.241 258.67C113.241 260.347 112.491 261.75 110.894 261.75ZM116.853 263H118.552V257.67C118.552 256.528 119.433 255.705 120.637 255.705C120.989 255.705 121.387 255.767 121.523 255.807V254.182C121.353 254.159 121.018 254.142 120.802 254.142C119.779 254.142 118.904 254.722 118.586 255.659H118.495V254.273H116.853V263ZM125.948 263.17C127.539 263.17 128.164 262.199 128.471 261.642H128.613V263H130.272V251.364H128.573V255.688H128.471C128.164 255.148 127.585 254.159 125.96 254.159C123.852 254.159 122.3 255.824 122.3 258.653C122.3 261.477 123.829 263.17 125.948 263.17ZM126.323 261.722C124.806 261.722 124.016 260.386 124.016 258.636C124.016 256.903 124.789 255.602 126.323 255.602C127.806 255.602 128.602 256.812 128.602 258.636C128.602 260.472 127.789 261.722 126.323 261.722ZM141.085 254.273H139.204V253.489C139.204 252.716 139.522 252.295 140.352 252.295C140.704 252.295 140.954 252.375 141.113 252.426L141.511 251.051C141.272 250.96 140.778 250.818 140.09 250.818C138.71 250.818 137.499 251.625 137.499 253.261V254.273H136.153V255.636H137.499V263H139.204V255.636H141.085V254.273ZM146.17 263.176C148.63 263.176 150.238 261.375 150.238 258.676C150.238 255.96 148.63 254.159 146.17 254.159C143.71 254.159 142.102 255.96 142.102 258.676C142.102 261.375 143.71 263.176 146.17 263.176ZM146.175 261.75C144.567 261.75 143.817 260.347 143.817 258.67C143.817 257 144.567 255.58 146.175 255.58C147.772 255.58 148.522 257 148.522 258.67C148.522 260.347 147.772 261.75 146.175 261.75ZM157.663 259.381C157.668 260.864 156.566 261.568 155.612 261.568C154.56 261.568 153.833 260.807 153.833 259.619V254.273H152.134V259.824C152.134 261.989 153.322 263.114 154.998 263.114C156.31 263.114 157.202 262.42 157.606 261.489H157.697V263H159.367V254.273H157.663V259.381ZM163.349 257.818C163.349 256.426 164.201 255.631 165.383 255.631C166.536 255.631 167.235 256.386 167.235 257.653V263H168.934V257.449C168.934 255.29 167.746 254.159 165.962 254.159C164.65 254.159 163.792 254.767 163.388 255.693H163.281V254.273H161.65V263H163.349V257.818ZM174.479 263.17C176.07 263.17 176.695 262.199 177.002 261.642H177.144V263H178.803V251.364H177.104V255.688H177.002C176.695 255.148 176.116 254.159 174.491 254.159C172.383 254.159 170.832 255.824 170.832 258.653C170.832 261.477 172.36 263.17 174.479 263.17ZM174.854 261.722C173.337 261.722 172.548 260.386 172.548 258.636C172.548 256.903 173.32 255.602 174.854 255.602C176.337 255.602 177.133 256.812 177.133 258.636C177.133 260.472 176.32 261.722 174.854 261.722ZM182.347 263.108C182.967 263.108 183.484 262.602 183.484 261.972C183.484 261.352 182.967 260.841 182.347 260.841C181.722 260.841 181.211 261.352 181.211 261.972C181.211 262.602 181.722 263.108 182.347 263.108ZM199.607 255.148C199.21 252.659 197.261 251.205 194.8 251.205C191.789 251.205 189.567 253.46 189.567 257.182C189.567 260.903 191.778 263.159 194.8 263.159C197.357 263.159 199.227 261.557 199.607 259.256L197.835 259.25C197.533 260.739 196.283 261.557 194.812 261.557C192.817 261.557 191.312 260.028 191.312 257.182C191.312 254.358 192.812 252.807 194.817 252.807C196.3 252.807 197.545 253.642 197.835 255.148H199.607ZM203.271 251.364H201.572V263H203.271V251.364ZM205.556 263H207.255V254.273H205.556V263ZM206.414 252.926C206.999 252.926 207.488 252.472 207.488 251.915C207.488 251.358 206.999 250.898 206.414 250.898C205.823 250.898 205.34 251.358 205.34 251.915C205.34 252.472 205.823 252.926 206.414 252.926ZM213.217 263.176C215.279 263.176 216.614 261.938 216.802 260.239H215.148C214.933 261.182 214.2 261.739 213.228 261.739C211.79 261.739 210.864 260.54 210.864 258.636C210.864 256.767 211.808 255.591 213.228 255.591C214.308 255.591 214.967 256.273 215.148 257.091H216.802C216.62 255.33 215.183 254.159 213.2 254.159C210.739 254.159 209.148 256.011 209.148 258.676C209.148 261.307 210.683 263.176 213.217 263.176ZM218.619 263H220.317V259.903L221.164 259.057L224.13 263H226.215L222.442 258.017L225.977 254.273H223.942L220.465 257.966H220.317V251.364H218.619V263ZM355.427 254.273H353.637V252.182H351.938V254.273H350.66V255.636H351.938V260.79C351.933 262.375 353.143 263.142 354.484 263.114C355.023 263.108 355.387 263.006 355.586 262.932L355.279 261.528C355.165 261.551 354.955 261.602 354.683 261.602C354.131 261.602 353.637 261.42 353.637 260.438V255.636H355.427V254.273ZM360.888 263.176C363.349 263.176 364.957 261.375 364.957 258.676C364.957 255.96 363.349 254.159 360.888 254.159C358.428 254.159 356.82 255.96 356.82 258.676C356.82 261.375 358.428 263.176 360.888 263.176ZM360.894 261.75C359.286 261.75 358.536 260.347 358.536 258.67C358.536 257 359.286 255.58 360.894 255.58C362.491 255.58 363.241 257 363.241 258.67C363.241 260.347 362.491 261.75 360.894 261.75ZM102.876 289H104.575V283.67C104.575 282.528 105.456 281.705 106.661 281.705C107.013 281.705 107.411 281.767 107.547 281.807V280.182C107.376 280.159 107.041 280.142 106.825 280.142C105.803 280.142 104.928 280.722 104.609 281.659H104.518V280.273H102.876V289ZM112.466 289.176C114.369 289.176 115.716 288.239 116.102 286.818L114.494 286.528C114.188 287.352 113.449 287.773 112.483 287.773C111.028 287.773 110.051 286.83 110.006 285.148H116.21V284.545C116.21 281.392 114.324 280.159 112.347 280.159C109.915 280.159 108.312 282.011 108.312 284.693C108.312 287.403 109.892 289.176 112.466 289.176ZM110.011 283.875C110.08 282.636 110.977 281.562 112.358 281.562C113.676 281.562 114.54 282.54 114.545 283.875H110.011ZM121.754 292.455C123.976 292.455 125.692 291.438 125.692 289.193V280.273H124.027V281.688H123.902C123.601 281.148 122.999 280.159 121.374 280.159C119.266 280.159 117.714 281.824 117.714 284.602C117.714 287.386 119.3 288.869 121.362 288.869C122.964 288.869 123.584 287.966 123.891 287.409H123.999V289.125C123.999 290.494 123.061 291.085 121.771 291.085C120.357 291.085 119.805 290.375 119.504 289.875L118.044 290.477C118.504 291.545 119.669 292.455 121.754 292.455ZM121.737 287.46C120.22 287.46 119.43 286.295 119.43 284.58C119.43 282.903 120.203 281.602 121.737 281.602C123.22 281.602 124.016 282.812 124.016 284.58C124.016 286.381 123.203 287.46 121.737 287.46ZM127.97 289H129.669V280.273H127.97V289ZM128.828 278.926C129.413 278.926 129.902 278.472 129.902 277.915C129.902 277.358 129.413 276.898 128.828 276.898C128.237 276.898 127.754 277.358 127.754 277.915C127.754 278.472 128.237 278.926 128.828 278.926ZM138.494 282.403C138.142 281.045 137.08 280.159 135.193 280.159C133.222 280.159 131.824 281.199 131.824 282.744C131.824 283.983 132.574 284.807 134.21 285.17L135.688 285.494C136.528 285.682 136.92 286.057 136.92 286.602C136.92 287.278 136.199 287.807 135.085 287.807C134.068 287.807 133.415 287.369 133.21 286.511L131.568 286.761C131.852 288.307 133.136 289.176 135.097 289.176C137.205 289.176 138.665 288.057 138.665 286.477C138.665 285.244 137.881 284.483 136.278 284.114L134.892 283.795C133.932 283.568 133.517 283.244 133.523 282.653C133.517 281.983 134.244 281.506 135.21 281.506C136.267 281.506 136.756 282.091 136.955 282.676L138.494 282.403ZM144.607 280.273H142.817V278.182H141.118V280.273H139.839V281.636H141.118V286.79C141.112 288.375 142.322 289.142 143.663 289.114C144.203 289.108 144.567 289.006 144.766 288.932L144.459 287.528C144.345 287.551 144.135 287.602 143.862 287.602C143.311 287.602 142.817 287.42 142.817 286.438V281.636H144.607V280.273ZM150.153 289.176C152.057 289.176 153.403 288.239 153.79 286.818L152.182 286.528C151.875 287.352 151.136 287.773 150.17 287.773C148.716 287.773 147.739 286.83 147.693 285.148H153.898V284.545C153.898 281.392 152.011 280.159 150.034 280.159C147.602 280.159 146 282.011 146 284.693C146 287.403 147.58 289.176 150.153 289.176ZM147.699 283.875C147.767 282.636 148.665 281.562 150.045 281.562C151.364 281.562 152.227 282.54 152.233 283.875H147.699ZM155.783 289H157.482V283.67C157.482 282.528 158.362 281.705 159.567 281.705C159.919 281.705 160.317 281.767 160.453 281.807V280.182C160.283 280.159 159.947 280.142 159.732 280.142C158.709 280.142 157.834 280.722 157.516 281.659H157.425V280.273H155.783V289ZM168.697 289.193C170.141 289.193 170.953 288.46 171.277 287.807H171.345V289H173.004V283.205C173.004 280.665 171.004 280.159 169.618 280.159C168.038 280.159 166.584 280.795 166.016 282.386L167.612 282.75C167.862 282.131 168.499 281.534 169.641 281.534C170.737 281.534 171.3 282.108 171.3 283.097V283.136C171.3 283.756 170.663 283.744 169.095 283.926C167.442 284.119 165.749 284.551 165.749 286.534C165.749 288.25 167.038 289.193 168.697 289.193ZM169.067 287.83C168.107 287.83 167.413 287.398 167.413 286.557C167.413 285.648 168.22 285.324 169.203 285.193C169.754 285.119 171.061 284.972 171.305 284.727V285.852C171.305 286.886 170.482 287.83 169.067 287.83ZM181.807 282.403C181.455 281.045 180.392 280.159 178.506 280.159C176.534 280.159 175.136 281.199 175.136 282.744C175.136 283.983 175.886 284.807 177.523 285.17L179 285.494C179.841 285.682 180.233 286.057 180.233 286.602C180.233 287.278 179.511 287.807 178.398 287.807C177.381 287.807 176.727 287.369 176.523 286.511L174.881 286.761C175.165 288.307 176.449 289.176 178.409 289.176C180.517 289.176 181.977 288.057 181.977 286.477C181.977 285.244 181.193 284.483 179.591 284.114L178.205 283.795C177.244 283.568 176.83 283.244 176.835 282.653C176.83 281.983 177.557 281.506 178.523 281.506C179.58 281.506 180.068 282.091 180.267 282.676L181.807 282.403ZM189.778 283.818C189.778 282.426 190.631 281.631 191.812 281.631C192.966 281.631 193.665 282.386 193.665 283.653V289H195.364V283.449C195.364 281.29 194.176 280.159 192.392 280.159C191.08 280.159 190.222 280.767 189.818 281.693H189.71V280.273H188.08V289H189.778V283.818ZM201.403 289.176C203.307 289.176 204.653 288.239 205.04 286.818L203.432 286.528C203.125 287.352 202.386 287.773 201.42 287.773C199.966 287.773 198.989 286.83 198.943 285.148H205.148V284.545C205.148 281.392 203.261 280.159 201.284 280.159C198.852 280.159 197.25 282.011 197.25 284.693C197.25 287.403 198.83 289.176 201.403 289.176ZM198.949 283.875C199.017 282.636 199.915 281.562 201.295 281.562C202.614 281.562 203.477 282.54 203.483 283.875H198.949ZM208.909 289H210.636L212.409 282.699H212.54L214.312 289H216.045L218.608 280.273H216.852L215.153 286.653H215.068L213.364 280.273H211.608L209.892 286.682H209.807L208.097 280.273H206.341L208.909 289ZM227.722 289.17C229.312 289.17 229.938 288.199 230.244 287.642H230.386V289H232.045V277.364H230.347V281.688H230.244C229.938 281.148 229.358 280.159 227.733 280.159C225.625 280.159 224.074 281.824 224.074 284.653C224.074 287.477 225.602 289.17 227.722 289.17ZM228.097 287.722C226.58 287.722 225.79 286.386 225.79 284.636C225.79 282.903 226.562 281.602 228.097 281.602C229.58 281.602 230.375 282.812 230.375 284.636C230.375 286.472 229.562 287.722 228.097 287.722ZM234.47 289H236.169V283.67C236.169 282.528 237.05 281.705 238.254 281.705C238.607 281.705 239.004 281.767 239.141 281.807V280.182C238.97 280.159 238.635 280.142 238.419 280.142C237.396 280.142 236.521 280.722 236.203 281.659H236.112V280.273H234.47V289ZM240.611 289H242.31V280.273H240.611V289ZM241.469 278.926C242.054 278.926 242.543 278.472 242.543 277.915C242.543 277.358 242.054 276.898 241.469 276.898C240.878 276.898 240.395 277.358 240.395 277.915C240.395 278.472 240.878 278.926 241.469 278.926ZM252.061 280.273H250.237L248.033 286.989H247.942L245.732 280.273H243.908L247.078 289H248.896L252.061 280.273ZM257.107 289.176C259.01 289.176 260.357 288.239 260.743 286.818L259.135 286.528C258.828 287.352 258.089 287.773 257.124 287.773C255.669 287.773 254.692 286.83 254.646 285.148H260.851V284.545C260.851 281.392 258.964 280.159 256.987 280.159C254.555 280.159 252.953 282.011 252.953 284.693C252.953 287.403 254.533 289.176 257.107 289.176ZM254.652 283.875C254.72 282.636 255.618 281.562 256.999 281.562C258.317 281.562 259.18 282.54 259.186 283.875H254.652ZM262.736 289H264.435V283.67C264.435 282.528 265.315 281.705 266.52 281.705C266.872 281.705 267.27 281.767 267.406 281.807V280.182C267.236 280.159 266.901 280.142 266.685 280.142C265.662 280.142 264.787 280.722 264.469 281.659H264.378V280.273H262.736V289ZM268.996 289.108C269.615 289.108 270.132 288.602 270.132 287.972C270.132 287.352 269.615 286.841 268.996 286.841C268.371 286.841 267.859 287.352 267.859 287.972C267.859 288.602 268.371 289.108 268.996 289.108Z" fill="#8E919C"/>
<path d="M231.765 263H233.873V258.739H236.021L238.305 263H240.657L238.14 258.386C239.509 257.835 240.231 256.665 240.231 255.085C240.231 252.864 238.799 251.364 236.129 251.364H231.765V263ZM233.873 256.989V253.125H235.805C237.379 253.125 238.083 253.847 238.083 255.085C238.083 256.324 237.379 256.989 235.816 256.989H233.873ZM245.819 263.17C247.853 263.17 249.251 262.176 249.614 260.659L247.694 260.443C247.415 261.182 246.734 261.568 245.847 261.568C244.518 261.568 243.637 260.693 243.62 259.199H249.7V258.568C249.7 255.506 247.859 254.159 245.711 254.159C243.211 254.159 241.58 255.994 241.58 258.688C241.58 261.426 243.188 263.17 245.819 263.17ZM243.626 257.812C243.688 256.699 244.512 255.761 245.739 255.761C246.921 255.761 247.717 256.625 247.728 257.812H243.626ZM255.235 266.455C257.593 266.455 259.332 265.375 259.332 263.142V254.273H257.303V255.716H257.19C256.877 255.085 256.224 254.159 254.684 254.159C252.667 254.159 251.082 255.739 251.082 258.608C251.082 261.455 252.667 262.875 254.678 262.875C256.173 262.875 256.871 262.074 257.19 261.432H257.292V263.085C257.292 264.369 256.44 264.898 255.269 264.898C254.031 264.898 253.485 264.312 253.235 263.801L251.383 264.25C251.758 265.472 253.013 266.455 255.235 266.455ZM255.252 261.261C253.894 261.261 253.178 260.205 253.178 258.597C253.178 257.011 253.883 255.847 255.252 255.847C256.576 255.847 257.303 256.943 257.303 258.597C257.303 260.261 256.565 261.261 255.252 261.261ZM261.44 263H263.496V254.273H261.44V263ZM262.474 253.034C263.127 253.034 263.661 252.534 263.661 251.92C263.661 251.301 263.127 250.801 262.474 250.801C261.815 250.801 261.281 251.301 261.281 251.92C261.281 252.534 261.815 253.034 262.474 253.034ZM272.509 256.58C272.225 255.102 271.043 254.159 268.998 254.159C266.896 254.159 265.464 255.193 265.469 256.807C265.464 258.08 266.248 258.92 267.924 259.267L269.413 259.58C270.214 259.756 270.589 260.08 270.589 260.574C270.589 261.17 269.941 261.619 268.964 261.619C268.021 261.619 267.407 261.21 267.231 260.426L265.225 260.619C265.481 262.222 266.827 263.17 268.969 263.17C271.151 263.17 272.691 262.04 272.697 260.386C272.691 259.142 271.89 258.381 270.242 258.023L268.754 257.705C267.867 257.506 267.515 257.199 267.521 256.693C267.515 256.102 268.168 255.693 269.026 255.693C269.975 255.693 270.475 256.21 270.634 256.784L272.509 256.58ZM278.751 254.273H277.029V252.182H274.972V254.273H273.734V255.864H274.972V260.716C274.961 262.358 276.154 263.165 277.7 263.119C278.285 263.102 278.688 262.989 278.91 262.915L278.563 261.307C278.45 261.335 278.217 261.386 277.961 261.386C277.444 261.386 277.029 261.205 277.029 260.375V255.864H278.751V254.273ZM284.241 263.17C286.275 263.17 287.673 262.176 288.036 260.659L286.116 260.443C285.837 261.182 285.156 261.568 284.269 261.568C282.94 261.568 282.059 260.693 282.042 259.199H288.121V258.568C288.121 255.506 286.281 254.159 284.133 254.159C281.633 254.159 280.002 255.994 280.002 258.688C280.002 261.426 281.61 263.17 284.241 263.17ZM282.048 257.812C282.11 256.699 282.934 255.761 284.161 255.761C285.343 255.761 286.138 256.625 286.15 257.812H282.048ZM289.862 263H291.918V257.869C291.918 256.761 292.754 255.977 293.884 255.977C294.231 255.977 294.663 256.04 294.839 256.097V254.205C294.651 254.17 294.327 254.148 294.1 254.148C293.1 254.148 292.265 254.716 291.947 255.727H291.856V254.273H289.862V263ZM304.208 263C307.754 263 309.856 260.807 309.856 257.17C309.856 253.545 307.754 251.364 304.288 251.364H300.265V263H304.208ZM302.373 261.176V253.188H304.168C306.532 253.188 307.765 254.506 307.765 257.17C307.765 259.847 306.532 261.176 304.106 261.176H302.373ZM311.768 263H313.825V257.869C313.825 256.761 314.66 255.977 315.79 255.977C316.137 255.977 316.569 256.04 316.745 256.097V254.205C316.558 254.17 316.234 254.148 316.006 254.148C315.006 254.148 314.171 254.716 313.853 255.727H313.762V254.273H311.768V263ZM318.112 263H320.168V254.273H318.112V263ZM319.146 253.034C319.799 253.034 320.333 252.534 320.333 251.92C320.333 251.301 319.799 250.801 319.146 250.801C318.487 250.801 317.952 251.301 317.952 251.92C317.952 252.534 318.487 253.034 319.146 253.034ZM330.079 254.273H327.891L325.88 260.756H325.789L323.783 254.273H321.59L324.698 263H326.971L330.079 254.273ZM335.069 263.17C337.103 263.17 338.501 262.176 338.864 260.659L336.944 260.443C336.665 261.182 335.984 261.568 335.097 261.568C333.768 261.568 332.887 260.693 332.87 259.199H338.95V258.568C338.95 255.506 337.109 254.159 334.961 254.159C332.461 254.159 330.83 255.994 330.83 258.688C330.83 261.426 332.438 263.17 335.069 263.17ZM332.876 257.812C332.938 256.699 333.762 255.761 334.989 255.761C336.171 255.761 336.967 256.625 336.978 257.812H332.876ZM340.69 263H342.746V257.869C342.746 256.761 343.582 255.977 344.712 255.977C345.059 255.977 345.491 256.04 345.667 256.097V254.205C345.479 254.17 345.156 254.148 344.928 254.148C343.928 254.148 343.093 254.716 342.775 255.727H342.684V254.273H340.69V263Z" fill="#22D389"/>
<path d="M42.7172 218.846H47.3283V209.524H52.0265L57.0229 218.846H62.1685L56.6625 208.753C59.6579 207.548 61.2364 204.987 61.2364 201.532C61.2364 196.672 58.1043 193.391 52.2627 193.391H42.7172V218.846ZM47.3283 205.696V197.244H51.5542C54.997 197.244 56.5382 198.823 56.5382 201.532C56.5382 204.242 54.997 205.696 51.5791 205.696H47.3283ZM73.4603 219.219C77.9098 219.219 80.9674 217.044 81.7628 213.725L77.5618 213.253C76.9528 214.868 75.4613 215.714 73.5224 215.714C70.614 215.714 68.6875 213.8 68.6503 210.531H81.9493V209.151C81.9493 202.452 77.9223 199.506 73.2241 199.506C67.7554 199.506 64.1883 203.521 64.1883 209.412C64.1883 215.403 67.7057 219.219 73.4603 219.219ZM68.6627 207.498C68.7994 205.062 70.6016 203.011 73.2863 203.011C75.8715 203.011 77.6116 204.9 77.6364 207.498H68.6627ZM94.0831 219.219C98.8806 219.219 101.938 216.372 102.261 212.32H97.9609C97.5756 214.371 96.0965 215.552 94.1203 215.552C91.3114 215.552 89.4968 213.203 89.4968 209.3C89.4968 205.447 91.3487 203.135 94.1203 203.135C96.283 203.135 97.6129 204.528 97.9609 206.367H102.261C101.951 202.228 98.7191 199.506 94.0582 199.506C88.4652 199.506 84.9353 203.546 84.9353 209.375C84.9353 215.154 88.3782 219.219 94.0831 219.219ZM114.283 219.219C119.876 219.219 123.431 215.279 123.431 209.375C123.431 203.459 119.876 199.506 114.283 199.506C108.69 199.506 105.136 203.459 105.136 209.375C105.136 215.279 108.69 219.219 114.283 219.219ZM114.308 215.614C111.213 215.614 109.697 212.855 109.697 209.362C109.697 205.87 111.213 203.073 114.308 203.073C117.353 203.073 118.87 205.87 118.87 209.362C118.87 212.855 117.353 215.614 114.308 215.614ZM127.25 218.846H131.749V207.622C131.749 205.199 133.576 203.483 136.049 203.483C136.808 203.483 137.752 203.62 138.138 203.744V199.606C137.727 199.531 137.019 199.481 136.522 199.481C134.334 199.481 132.507 200.724 131.811 202.937H131.612V199.755H127.25V218.846ZM147.425 219.181C150.706 219.181 152.185 217.23 152.894 215.838H153.167V218.846H157.592V193.391H153.08V202.912H152.894C152.21 201.532 150.806 199.506 147.438 199.506C143.025 199.506 139.558 202.961 139.558 209.325C139.558 215.614 142.926 219.181 147.425 219.181ZM148.68 215.49C145.71 215.49 144.144 212.88 144.144 209.3C144.144 205.746 145.685 203.198 148.68 203.198C151.576 203.198 153.167 205.596 153.167 209.3C153.167 213.004 151.552 215.49 148.68 215.49ZM175.567 207.66C175.567 204.9 177.233 203.309 179.607 203.309C181.931 203.309 183.323 204.838 183.323 207.386V218.846H187.822V206.69C187.835 202.116 185.225 199.506 181.285 199.506C178.426 199.506 176.462 200.873 175.592 202.999H175.369V199.755H171.068V218.846H175.567V207.66ZM200.724 219.219C206.317 219.219 209.871 215.279 209.871 209.375C209.871 203.459 206.317 199.506 200.724 199.506C195.131 199.506 191.576 203.459 191.576 209.375C191.576 215.279 195.131 219.219 200.724 219.219ZM200.749 215.614C197.654 215.614 196.137 212.855 196.137 209.362C196.137 205.87 197.654 203.073 200.749 203.073C203.794 203.073 205.31 205.87 205.31 209.362C205.31 212.855 203.794 215.614 200.749 215.614ZM223.223 199.755H219.457V195.181H214.958V199.755H212.248V203.235H214.958V213.849C214.933 217.441 217.543 219.206 220.924 219.107C222.204 219.069 223.087 218.821 223.571 218.659L222.813 215.142C222.564 215.204 222.055 215.316 221.496 215.316C220.365 215.316 219.457 214.918 219.457 213.104V203.235H223.223V199.755ZM245.337 199.755H241.373V198.251C241.373 196.759 241.994 195.927 243.672 195.927C244.38 195.927 244.977 196.088 245.35 196.2L246.257 192.72C245.673 192.521 244.393 192.198 242.839 192.198C239.521 192.198 236.873 194.1 236.873 197.953V199.755H234.052V203.235H236.873V218.846H241.373V203.235H245.337V199.755ZM256.471 219.219C262.064 219.219 265.618 215.279 265.618 209.375C265.618 203.459 262.064 199.506 256.471 199.506C250.878 199.506 247.323 203.459 247.323 209.375C247.323 215.279 250.878 219.219 256.471 219.219ZM256.496 215.614C253.401 215.614 251.884 212.855 251.884 209.362C251.884 205.87 253.401 203.073 256.496 203.073C259.541 203.073 261.057 205.87 261.057 209.362C261.057 212.855 259.541 215.614 256.496 215.614ZM281.605 210.817C281.605 213.725 279.53 215.167 277.541 215.167C275.378 215.167 273.937 213.638 273.937 211.214V199.755H269.437V211.91C269.437 216.497 272.047 219.094 275.801 219.094C278.66 219.094 280.673 217.59 281.543 215.453H281.742V218.846H286.105V199.755H281.605V210.817ZM295.231 207.66C295.231 204.9 296.896 203.309 299.27 203.309C301.594 203.309 302.986 204.838 302.986 207.386V218.846H307.485V206.69C307.498 202.116 304.888 199.506 300.948 199.506C298.089 199.506 296.125 200.873 295.255 202.999H295.032V199.755H290.731V218.846H295.231V207.66ZM319.144 219.181C322.425 219.181 323.904 217.23 324.613 215.838H324.886V218.846H329.311V193.391H324.799V202.912H324.613C323.929 201.532 322.525 199.506 319.156 199.506C314.744 199.506 311.276 202.961 311.276 209.325C311.276 215.614 314.645 219.181 319.144 219.181ZM320.399 215.49C317.429 215.49 315.863 212.88 315.863 209.3C315.863 205.746 317.404 203.198 320.399 203.198C323.295 203.198 324.886 205.596 324.886 209.3C324.886 213.004 323.27 215.49 320.399 215.49Z" fill="#0A1A47"/>
<path d="M206.226 30.3248H165.807C164.886 30.3259 164.003 30.6633 163.352 31.2631C162.7 31.8629 162.334 32.6762 162.333 33.5244V116.256L161.87 116.386L151.954 119.182C151.484 119.314 150.977 119.269 150.543 119.057C150.109 118.844 149.785 118.482 149.641 118.05L120.147 29.3244C120.003 28.8916 120.052 28.4241 120.283 28.0245C120.513 27.6249 120.907 27.326 121.377 27.1935L136.656 22.8847L180.952 10.3976L196.232 6.08882C196.464 6.02291 196.709 5.99988 196.951 6.02105C197.193 6.04221 197.428 6.10716 197.643 6.21216C197.858 6.31717 198.049 6.46018 198.203 6.633C198.358 6.80583 198.475 7.00508 198.546 7.21935L206.085 29.8982L206.226 30.3248Z" fill="#F2F2F2"/>
<path d="M215.046 29.8984L205.959 2.56517C205.808 2.10975 205.561 1.68622 205.232 1.31879C204.903 0.951367 204.499 0.647241 204.042 0.423792C203.586 0.200343 203.086 0.0619502 202.571 0.0165267C202.056 -0.0288969 201.537 0.0195389 201.042 0.159062L179.56 6.21486L135.266 18.704L113.784 24.762C112.786 25.0442 111.951 25.6795 111.461 26.5285C110.971 27.3776 110.867 28.3709 111.171 29.2905L142.226 122.704C142.474 123.447 142.973 124.096 143.651 124.558C144.329 125.02 145.149 125.27 145.992 125.27C146.383 125.271 146.771 125.217 147.143 125.11L161.869 120.959L162.333 120.827V120.381L161.869 120.511L147.007 124.703C146.126 124.95 145.175 124.866 144.361 124.468C143.548 124.07 142.939 123.391 142.669 122.581L111.616 29.1646C111.482 28.763 111.435 28.3409 111.479 27.9225C111.522 27.5042 111.655 27.0978 111.869 26.7267C112.083 26.3556 112.374 26.027 112.726 25.7598C113.078 25.4926 113.484 25.2919 113.921 25.1694L135.403 19.1114L179.697 6.62442L201.179 0.566483C201.51 0.473438 201.854 0.425996 202.2 0.425699C202.943 0.427235 203.666 0.647786 204.263 1.05505C204.86 1.46231 205.299 2.03488 205.517 2.68889L214.562 29.8984L214.705 30.325H215.187L215.046 29.8984Z" fill="#3F3D56"/>
<path d="M139.413 27.2633C138.967 27.2631 138.532 27.131 138.173 26.8866C137.815 26.6422 137.55 26.2983 137.419 25.9053L134.436 16.9311C134.355 16.69 134.328 16.4367 134.354 16.1858C134.38 15.9348 134.459 15.691 134.588 15.4684C134.716 15.2458 134.891 15.0486 135.102 14.8882C135.313 14.7277 135.557 14.6072 135.819 14.5334L176.569 3.04388C177.097 2.89531 177.668 2.94598 178.156 3.18476C178.644 3.42353 179.01 3.83091 179.172 4.31747L182.155 13.2918C182.317 13.7787 182.261 14.3045 182.002 14.754C181.743 15.2035 181.301 15.54 180.772 15.6895L140.022 27.1791C139.825 27.2349 139.62 27.2633 139.413 27.2633Z" fill="#0A1A47"/>
<path d="M155.04 9.58748C157.599 9.58748 159.673 7.67746 159.673 5.32133C159.673 2.9652 157.599 1.05518 155.04 1.05518C152.482 1.05518 150.408 2.9652 150.408 5.32133C150.408 7.67746 152.482 9.58748 155.04 9.58748Z" fill="#0A1A47"/>
<path d="M155.041 8.02255C156.661 8.02255 157.974 6.81306 157.974 5.32109C157.974 3.82911 156.661 2.61963 155.041 2.61963C153.421 2.61963 152.107 3.82911 152.107 5.32109C152.107 6.81306 153.421 8.02255 155.041 8.02255Z" fill="white"/>
<path d="M250.578 124.18H172.292C171.77 124.18 171.27 123.989 170.901 123.649C170.532 123.309 170.324 122.848 170.324 122.367V35.9777C170.324 35.497 170.532 35.0361 170.901 34.6962C171.27 34.3563 171.77 34.1651 172.292 34.1646H250.578C251.1 34.1651 251.6 34.3563 251.969 34.6962C252.338 35.0361 252.546 35.497 252.547 35.9777V122.367C252.546 122.848 252.338 123.309 251.969 123.649C251.6 123.989 251.1 124.18 250.578 124.18Z" fill="#E6E6E6"/>
<path d="M214.562 29.8984H165.807C164.763 29.8998 163.763 30.2823 163.025 30.962C162.286 31.6418 161.871 32.5633 161.87 33.5247V120.511L162.333 120.381V33.5247C162.334 32.6764 162.7 31.8632 163.352 31.2633C164.003 30.6635 164.886 30.3261 165.807 30.3251H214.705L214.562 29.8984ZM257.063 29.8984H165.807C164.763 29.8998 163.763 30.2823 163.025 30.962C162.286 31.6418 161.871 32.5633 161.87 33.5247V131.22C161.871 132.181 162.286 133.102 163.025 133.782C163.763 134.462 164.763 134.844 165.807 134.846H257.063C258.107 134.844 259.107 134.462 259.845 133.782C260.584 133.102 260.999 132.181 261 131.22V33.5247C260.999 32.5633 260.584 31.6418 259.845 30.962C259.107 30.2823 258.107 29.8998 257.063 29.8984ZM260.537 131.22C260.536 132.068 260.17 132.881 259.518 133.481C258.867 134.081 257.984 134.418 257.063 134.419H165.807C164.886 134.418 164.003 134.081 163.352 133.481C162.7 132.881 162.334 132.068 162.333 131.22V33.5247C162.334 32.6764 162.7 31.8632 163.352 31.2633C164.003 30.6635 164.886 30.3261 165.807 30.3251H257.063C257.984 30.3261 258.867 30.6635 259.518 31.2633C260.17 31.8632 260.536 32.6764 260.537 33.5247V131.22Z" fill="#3F3D56"/>
<path d="M232.743 39.2839H190.126C189.573 39.2833 189.044 39.0809 188.653 38.721C188.262 38.3611 188.042 37.8731 188.042 37.3641V27.9786C188.042 27.4696 188.262 26.9817 188.653 26.6218C189.044 26.2619 189.573 26.0594 190.126 26.0588H232.743C233.296 26.0594 233.825 26.2619 234.216 26.6218C234.607 26.9817 234.827 27.4696 234.827 27.9786V37.3641C234.827 37.8731 234.607 38.3611 234.216 38.721C233.825 39.0809 233.296 39.2833 232.743 39.2839Z" fill="#0A1A47"/>
<path d="M211.435 26.6988C213.993 26.6988 216.067 24.7888 216.067 22.4327C216.067 20.0765 213.993 18.1665 211.435 18.1665C208.877 18.1665 206.803 20.0765 206.803 22.4327C206.803 24.7888 208.877 26.6988 211.435 26.6988Z" fill="#0A1A47"/>
<path d="M211.435 25.0312C212.993 25.0312 214.256 23.8678 214.256 22.4327C214.256 20.9976 212.993 19.8342 211.435 19.8342C209.877 19.8342 208.613 20.9976 208.613 22.4327C208.613 23.8678 209.877 25.0312 211.435 25.0312Z" fill="white"/>
</svg>
